<?xml version="1.0"?>
<svg xmlns="http://www.w3.org/2000/svg" viewBox="0 0 512 512" width="512" height="512"><g><path d="M256,16H256a240,240,0,0,0-169.7,409.706A240,240,0,0,0,425.706,86.294,238.431,238.431,0,0,0,256,16ZM465.347,176H372.835a291.845,291.845,0,0,0-25.986-62.47,292.031,292.031,0,0,0,57.064-25.742q5.365,4.731,10.479,9.82A223.4,223.4,0,0,1,465.347,176ZM264,40.085a276.74,276.74,0,0,1,58.285,63.849A276.028,276.028,0,0,1,264,111.875Zm17.026-6.695a221.7,221.7,0,0,1,109.62,43.561,275.946,275.946,0,0,1-52.225,22.472A293.1,293.1,0,0,0,281.026,33.39ZM248,40.085v71.79a276.028,276.028,0,0,1-58.285-7.941A276.74,276.74,0,0,1,248,40.085ZM173.579,99.423a275.946,275.946,0,0,1-52.225-22.472A221.7,221.7,0,0,1,230.974,33.39,293.1,293.1,0,0,0,173.579,99.423ZM248,127.88V176H155.852a276.152,276.152,0,0,1,25.057-57.807A291.979,291.979,0,0,0,248,127.88Zm16,0a291.979,291.979,0,0,0,67.091-9.687A276.1,276.1,0,0,1,356.148,176H264ZM97.608,97.608q5.1-5.1,10.479-9.82a292.031,292.031,0,0,0,57.064,25.742A291.845,291.845,0,0,0,139.165,176H46.653A223.4,223.4,0,0,1,97.608,97.608ZM46.653,336h92.512a291.845,291.845,0,0,0,25.986,62.47,292.031,292.031,0,0,0-57.064,25.742q-5.365-4.731-10.479-9.82A223.4,223.4,0,0,1,46.653,336ZM248,471.915a276.74,276.74,0,0,1-58.285-63.849A276.028,276.028,0,0,1,248,400.125Zm-17.026,6.695a221.7,221.7,0,0,1-109.62-43.561,275.946,275.946,0,0,1,52.225-22.472A293.1,293.1,0,0,0,230.974,478.61ZM264,471.915v-71.79a276.028,276.028,0,0,1,58.285,7.941A276.762,276.762,0,0,1,264,471.915Zm74.421-59.338a275.946,275.946,0,0,1,52.225,22.472,221.7,221.7,0,0,1-109.62,43.561A293.1,293.1,0,0,0,338.421,412.577ZM264,384.12V336h92.148a276.1,276.1,0,0,1-25.057,57.807A291.987,291.987,0,0,0,264,384.12Zm-16,0a291.979,291.979,0,0,0-67.091,9.687A276.152,276.152,0,0,1,155.852,336H248Zm166.392,30.272q-5.1,5.1-10.479,9.82a292.031,292.031,0,0,0-57.064-25.742A291.9,291.9,0,0,0,372.836,336h92.511A223.4,223.4,0,0,1,414.392,414.392ZM470.76,320H41.24a226.265,226.265,0,0,1,0-128H470.76a226.265,226.265,0,0,1,0,128Z"/><path d="M202.343,210.343l-40,40a8,8,0,0,0,0,11.314l40,40,11.314-11.314L179.313,256l34.344-34.343Z"/><path d="M349.657,250.343l-40-40-11.314,11.314L332.687,256l-34.344,34.343,11.314,11.314,40-40A8,8,0,0,0,349.657,250.343Z"/><rect x="202.334" y="248" width="107.331" height="16" fill="#f22556" transform="translate(-87.46 370.487) rotate(-63.435)"/></g></svg>
