<?xml version="1.0" encoding="iso-8859-1"?>
<svg enable-background="new 0 0 507.769 507.769" height="512" viewBox="0 0 507.769 507.769" width="512" xmlns="http://www.w3.org/2000/svg"><path d="m71.627 314.255c4.143 0 7.5-3.358 7.5-7.5v-187.17c0-.793.04-1.581.102-2.363h76.851c16.999 0 30.828-13.83 30.828-30.828v-71.292c.782-.063 1.57-.102 2.363-.102h62.641c4.143 0 7.5-3.358 7.5-7.5s-3.357-7.5-7.5-7.5h-62.641c-11.713 0-22.728 4.543-31.03 12.795l-81.029 75.477-.191.185c-8.314 8.315-12.894 19.37-12.894 31.129v187.17c0 4.141 3.357 7.499 7.5 7.499zm96.932-290.57.191-.185c.995-.996 2.052-1.907 3.158-2.737v65.631c0 8.728-7.101 15.828-15.828 15.828h-71.188c.805-1.074 1.686-2.102 2.647-3.071z"/><path d="m413.907 0h-131.995c-4.143 0-7.5 3.358-7.5 7.5s3.357 7.5 7.5 7.5h131.995c8.125 0 14.734 6.609 14.734 14.733v448.302c0 8.124-6.609 14.733-14.734 14.733h-320.046c-8.125 0-14.734-6.609-14.734-14.733v-141.28c0-4.142-3.357-7.5-7.5-7.5s-7.5 3.358-7.5 7.5v141.28c0 16.395 13.339 29.733 29.734 29.733h320.046c16.396 0 29.734-13.338 29.734-29.733v-448.302c.001-16.395-13.338-29.733-29.734-29.733z"/><path d="m299.737 440.852c5.245 0 7.583.731 10.542 1.658 3.509 1.098 7.485 2.342 15.023 2.342s11.515-1.244 15.023-2.342c2.961-.926 5.299-1.658 10.546-1.658 5.246 0 7.584.731 10.545 1.658 3.509 1.098 7.485 2.342 15.023 2.342 4.143 0 7.5-3.358 7.5-7.5s-3.357-7.5-7.5-7.5c-5.246 0-7.584-.731-10.545-1.658-3.509-1.098-7.485-2.342-15.023-2.342-7.539 0-11.516 1.244-15.024 2.342-2.961.926-5.299 1.658-10.545 1.658s-7.584-.731-10.543-1.658c-3.509-1.098-7.485-2.342-15.022-2.342-4.143 0-7.5 3.358-7.5 7.5s3.358 7.5 7.5 7.5z"/><path d="m136.864 440.852c5.246 0 7.584.731 10.543 1.658 3.509 1.098 7.485 2.342 15.022 2.342 7.538 0 11.515-1.244 15.023-2.342 2.961-.926 5.299-1.658 10.546-1.658 5.246 0 7.584.731 10.545 1.658 3.509 1.098 7.485 2.342 15.023 2.342 4.143 0 7.5-3.358 7.5-7.5s-3.357-7.5-7.5-7.5c-5.246 0-7.584-.731-10.545-1.658-3.509-1.098-7.485-2.342-15.023-2.342-7.539 0-11.516 1.244-15.024 2.342-2.961.926-5.299 1.658-10.545 1.658-5.245 0-7.583-.731-10.542-1.658-3.509-1.098-7.485-2.342-15.023-2.342-4.143 0-7.5 3.358-7.5 7.5s3.358 7.5 7.5 7.5z"/><path d="m375.528 117.223c4.143 0 7.5-3.358 7.5-7.5s-3.357-7.5-7.5-7.5h-58.933c-4.143 0-7.5 3.358-7.5 7.5s3.357 7.5 7.5 7.5z"/><path d="m124.826 153.646c0 4.142 3.357 7.5 7.5 7.5h243.116c4.143 0 7.5-3.358 7.5-7.5s-3.357-7.5-7.5-7.5h-243.116c-4.142 0-7.5 3.357-7.5 7.5z"/><path d="m382.942 194.979c0-4.142-3.357-7.5-7.5-7.5h-243.116c-4.143 0-7.5 3.358-7.5 7.5s3.357 7.5 7.5 7.5h243.116c4.143 0 7.5-3.358 7.5-7.5z"/><path d="m132.326 243.813h63.779c4.143 0 7.5-3.358 7.5-7.5s-3.357-7.5-7.5-7.5h-63.779c-4.143 0-7.5 3.358-7.5 7.5s3.358 7.5 7.5 7.5z"/><path d="m132.326 285.146h63.779c4.143 0 7.5-3.358 7.5-7.5s-3.357-7.5-7.5-7.5h-63.779c-4.143 0-7.5 3.358-7.5 7.5s3.358 7.5 7.5 7.5z"/><path d="m132.326 326.479h63.779c4.143 0 7.5-3.358 7.5-7.5s-3.357-7.5-7.5-7.5h-63.779c-4.143 0-7.5 3.358-7.5 7.5s3.358 7.5 7.5 7.5z"/><path d="m132.326 364.813h63.779c4.143 0 7.5-3.358 7.5-7.5s-3.357-7.5-7.5-7.5h-63.779c-4.143 0-7.5 3.358-7.5 7.5s3.358 7.5 7.5 7.5z"/><path d="m309.989 375.623c40.227 0 72.953-32.727 72.953-72.953s-32.727-72.953-72.953-72.953-72.953 32.727-72.953 72.953 32.727 72.953 72.953 72.953zm-10.387-43.401c-10.97-4.308-18.058-14.701-18.058-26.479 0-8.206 3.519-15.797 9.341-21.077v23.098c0 2.888 1.658 5.519 4.264 6.766l11.604 5.552c2.085.998 4.515.979 6.582-.053l11.137-5.552c2.546-1.269 4.154-3.868 4.154-6.712v-23.53c6.105 5.281 9.808 13.047 9.808 21.509 0 11.544-6.894 21.862-17.563 26.285-2.802 1.162-4.628 3.896-4.628 6.928v21.325c-.021.002-.042.006-.063.008-.75.081-1.501.135-2.252.186-.25.017-.498.043-.75.057-.629.035-1.258.044-1.887.059-.375.008-.747.027-1.124.029-.555.002-1.109-.02-1.663-.033-.442-.011-.886-.013-1.325-.034-.525-.025-1.049-.072-1.573-.111-.416-.031-.833-.055-1.247-.095v-21.143c.001-3.086-1.886-5.856-4.757-6.983zm10.387-87.505c31.955 0 57.953 25.998 57.953 57.953 0 24.454-15.232 45.402-36.699 53.898v-12.928c13.629-7.624 22.19-22 22.19-37.898 0-18.867-12.05-35.467-29.985-41.308-2.288-.747-4.787-.348-6.729 1.062-1.943 1.411-3.094 3.667-3.094 6.069v31.557l-3.704 1.847-4.037-1.931v-31.314c0-2.42-1.168-4.691-3.136-6.1-1.968-1.407-4.494-1.78-6.785-.999-17.597 6.001-29.42 22.525-29.42 41.118 0 16.223 8.803 30.726 22.816 38.242v12.831c-21.797-8.333-37.324-29.454-37.324-54.145.001-31.957 25.999-57.954 57.954-57.954z"/></svg>