<?xml version="1.0" encoding="iso-8859-1"?>
<svg enable-background="new 0 0 46 60" height="512" viewBox="0 0 46 60" width="512" xmlns="http://www.w3.org/2000/svg"><path d="m33 10h-32c-.552 0-1-.448-1-1v-5.453c0-1.956 1.591-3.547 3.546-3.547h26.907c1.956 0 3.547 1.591 3.547 3.547v5.453c0 .552-.448 1-1 1zm-31-2h30v-4.453c0-.853-.694-1.547-1.547-1.547h-26.907c-.852 0-1.546.694-1.546 1.547z"/><path d="m30.453 60h-26.907c-1.955 0-3.546-1.591-3.546-3.547v-5.453c0-.552.448-1 1-1h32c.552 0 1 .448 1 1v5.453c0 1.956-1.591 3.547-3.547 3.547zm-28.453-8v4.453c0 .853.694 1.547 1.546 1.547h26.907c.853 0 1.547-.694 1.547-1.547v-4.453z"/><path d="m17 60c-2.757 0-5-2.243-5-5s2.243-5 5-5 5 2.243 5 5-2.243 5-5 5zm0-8c-1.654 0-3 1.346-3 3s1.346 3 3 3 3-1.346 3-3-1.346-3-3-3z"/><path d="m20 6h-6c-.552 0-1-.448-1-1s.448-1 1-1h6c.552 0 1 .448 1 1s-.448 1-1 1z"/><path d="m43 45h-28c-1.654 0-3-1.346-3-3v-24c0-1.654 1.346-3 3-3h28c1.654 0 3 1.346 3 3v24c0 1.654-1.346 3-3 3zm-28-28c-.552 0-1 .449-1 1v24c0 .552.449 1 1 1h28c.552 0 1-.449 1-1v-24c0-.552-.449-1-1-1z"/><path d="m9 21h-4c-.552 0-1-.448-1-1v-4c0-.552.448-1 1-1h4c.552 0 1 .448 1 1v4c0 .552-.448 1-1 1zm-3-2h2v-2h-2z"/><path d="m9 45h-4c-.552 0-1-.448-1-1v-4c0-.552.448-1 1-1h4c.552 0 1 .448 1 1v4c0 .552-.448 1-1 1zm-3-2h2v-2h-2z"/><path d="m9 37h-4c-.552 0-1-.448-1-1v-4c0-.552.448-1 1-1h4c.552 0 1 .448 1 1v4c0 .552-.448 1-1 1zm-3-2h2v-2h-2z"/><path d="m9 29h-4c-.552 0-1-.448-1-1v-4c0-.552.448-1 1-1h4c.552 0 1 .448 1 1v4c0 .552-.448 1-1 1zm-3-2h2v-2h-2z"/><path d="m30.453 60h-26.907c-1.955 0-3.546-1.591-3.546-3.547v-52.906c0-1.956 1.591-3.547 3.547-3.547h26.906c1.956 0 3.547 1.591 3.547 3.547v12.453c0 .552-.448 1-1 1h-18c-.552 0-1 .449-1 1v24c0 .552.449 1 1 1h18c.552 0 1 .448 1 1v12.453c0 1.956-1.591 3.547-3.547 3.547zm-26.906-58c-.853 0-1.547.694-1.547 1.547v52.906c0 .853.694 1.547 1.546 1.547h26.907c.853 0 1.547-.694 1.547-1.547v-11.453h-17c-1.654 0-3-1.346-3-3v-24c0-1.654 1.346-3 3-3h17v-11.453c0-.853-.694-1.547-1.547-1.547z"/><path d="m29 30c-.167 0-.334-.042-.486-.126l-9-5c-.331-.184-.53-.54-.513-.918.017-.379.247-.715.593-.869l9-4c.259-.115.554-.115.812 0l9 4c.346.154.576.49.593.869s-.182.734-.513.918l-9 5c-.152.084-.319.126-.486.126zm-6.762-5.9 6.762 3.756 6.762-3.756-6.762-3.006z"/><path d="m29 41c-.167 0-.334-.042-.486-.126l-9-5c-.317-.176-.514-.511-.514-.874v-11c0-.354.188-.682.493-.862.306-.18.683-.184.993-.012l9 5c.317.176.514.511.514.874v11c0 .354-.188.682-.493.862-.156.092-.332.138-.507.138zm-8-6.588 7 3.889v-8.712l-7-3.889z"/><path d="m29 41c-.175 0-.351-.046-.507-.138-.305-.18-.493-.508-.493-.862v-11c0-.363.197-.698.514-.874l9-5c.31-.172.687-.168.993.012.305.18.493.508.493.862v11c0 .363-.197.698-.514.874l-9 5c-.152.084-.319.126-.486.126zm1-11.412v8.712l7-3.889v-8.711z"/></svg>