<?xml version="1.0" encoding="iso-8859-1"?>
<svg xmlns="http://www.w3.org/2000/svg" viewBox="0 0 512 478.58"><title>marketing2</title><g data-name="Слой 2"><g  data-name="Слой 1"><path d="M435.2,444.91A8.5,8.5,0,0,1,429,442.2C349.53,357,216.19,315.56,21.33,315.56h0a21.19,21.19,0,0,1-15-6.1A20.85,20.85,0,0,1,0,294.5V140.73a20.88,20.88,0,0,1,6.26-15,21.15,21.15,0,0,1,14.94-6.11h0l.12,8.54v-8.54C227.85,119.66,353.57,83.59,429,2.72a8.53,8.53,0,0,1,14.68,4.57C454.51,80.41,460.8,139,460.8,221.88c0,83.9-6.29,142.64-17.16,215.76a8.57,8.57,0,0,1-5.91,6.9,8.8,8.8,0,0,1-2.53.37ZM21.2,298.5c190.44,0,324.16,39.18,408,119.68,9.23-64.75,14.5-120,14.5-196.3,0-75.38-5.28-130.44-14.5-195.17-79.83,76-206.83,110-407.9,110h-.12a4.26,4.26,0,0,0-3,1.19,3.88,3.88,0,0,0-1.17,2.8V294.5a3.88,3.88,0,0,0,1.17,2.8,4.18,4.18,0,0,0,3,1.2Z"/><path d="M397.31,409.62a7.45,7.45,0,0,1-1.06-.07,8.53,8.53,0,0,1-7.42-9.52c8.12-65.23,12.24-110.7,12.24-178.15,0-66.64-4.14-112-12.28-177.39a8.53,8.53,0,1,1,16.94-2.1c8.22,66.05,12.4,112,12.4,179.49,0,68.35-4.16,114.33-12.37,180.26a8.54,8.54,0,0,1-8.45,7.48Z"/><path d="M284.27,273.08H130.67a8.54,8.54,0,0,1-8.54-8.53V162.15a8.54,8.54,0,0,1,8.54-8.53h153.6a8.53,8.53,0,0,1,8.53,8.53v102.4A8.53,8.53,0,0,1,284.27,273.08ZM139.2,256H275.73V170.68H139.2Z"/><path d="M207.47,204.82H164.8a8.54,8.54,0,0,1,0-17.07h42.67a8.54,8.54,0,0,1,0,17.07Z"/><path d="M250.13,204.82H241.6a8.54,8.54,0,0,1,0-17.07h8.53a8.54,8.54,0,1,1,0,17.07Z"/><path d="M250.13,239H207.47a8.54,8.54,0,1,1,0-17.07h42.66a8.54,8.54,0,1,1,0,17.07Z"/><path d="M173.33,239H164.8a8.54,8.54,0,0,1,0-17.07h8.53a8.54,8.54,0,1,1,0,17.07Z"/><path d="M451,290.42a8.52,8.52,0,0,1-8.53-8.9c.83-19.26,1.23-38.76,1.23-59.64s-.4-40.43-1.23-59.68a8.51,8.51,0,0,1,10.6-8.63l.75.18C487,158.18,512,187.37,512,221.88c0,34.7-25.22,64-58.68,68.2l-.43.14a8.34,8.34,0,0,1-1.86.2Zm9-117.87c.55,15.94.82,32.17.82,49.33s-.26,33.33-.81,49.25c20.68-6.84,34.94-26.5,34.94-49.25C494.93,198.94,480.42,179.13,460,172.55Z"/><path d="M74,478.58a31.42,31.42,0,0,1-31.29-31.39V307.42a8.56,8.56,0,0,1,2.57-6.1,8,8,0,0,1,6.16-2.43c20,.45,40.31,1.45,60.3,3a8.52,8.52,0,0,1,7.88,8.58c-.06,7.82-.11,15.43-.11,18.11,0,44.17,3.89,69.69,14.83,97.56a31.82,31.82,0,0,1-1,25.53,30.85,30.85,0,0,1-19.11,16.24l-31.17,9.36a31.73,31.73,0,0,1-9.1,1.34ZM59.75,316.19v131A14.32,14.32,0,0,0,78.17,460.9l31.17-9.36a14,14,0,0,0,8.66-7.36,14.61,14.61,0,0,0,.43-11.82c-11.82-30.09-16-57.25-16-103.81,0-1.76,0-5.6,0-10.25-14.19-1-28.5-1.69-42.72-2.11Z"/><path d="M128,375.48H112.36a8.54,8.54,0,0,1-8.51-7.82c-1-11.73-1.44-24.52-1.44-39.11,0-2.69,0-10.37.11-18.25a8.54,8.54,0,0,1,9.18-8.44c20.63,1.57,40.87,3.76,60.18,6.54a8.51,8.51,0,0,1,7.32,8.44v7.47A51.22,51.22,0,0,1,128,375.48Zm-7.73-17.06H128a34.14,34.14,0,0,0,34.1-34.11v0c-13.82-1.85-28.09-3.42-42.6-4.66,0,4.05,0,7.35,0,8.93,0,10.92.28,20.76.82,29.88Z"/></g></g></svg>