<?xml version="1.0" encoding="iso-8859-1"?>
<svg version="1.1" xmlns="http://www.w3.org/2000/svg" xmlns:xlink="http://www.w3.org/1999/xlink" x="0px" y="0px"
	 viewBox="0 0 512.001 512.001" style="enable-background:new 0 0 512.001 512.001;" xml:space="preserve">
<g>
	<g>
		<path d="M467.679,24.755h-52.037c-4.142,0-7.5,3.358-7.5,7.5c0,4.142,3.358,7.5,7.5,7.5h52.037
			c16.168,0,29.321,13.153,29.321,29.321v200.618c0,4.142,3.358,7.5,7.5,7.5c4.142,0,7.5-3.358,7.5-7.5V69.077
			C512,44.638,492.118,24.755,467.679,24.755z"/>
	</g>
</g>
<g>
	<g>
		<path d="M504.5,292.812c-4.142,0-7.5,3.358-7.5,7.5v23.572H291.554v-65.169c0-7.767-6.089-14.121-13.741-14.584l-0.337-10.252
			c0.031-7.784,3.201-12.203,9.968-13.906c3.758-0.946,6.79-3.687,8.11-7.33c1.322-3.648,0.748-7.7-1.535-10.839l-32.798-45.102
			c38.771,2.629,69.697,34.26,71.2,73.324c-8.89,3.133-15.28,11.612-15.28,21.56c0,12.603,10.253,22.855,22.855,22.855
			s22.855-10.253,22.855-22.855c0-9.996-6.453-18.508-15.41-21.604c-1.001-30.703-17.2-57.627-41.303-73.478h58.625
			c3.111,8.929,11.609,15.355,21.585,15.355c12.603,0,22.855-10.253,22.855-22.855c0-12.602-10.253-22.855-22.855-22.855
			c-9.975,0-18.473,6.427-21.585,15.355H147.236c-3.112-8.928-11.609-15.355-21.585-15.355c-12.603,0-22.855,10.253-22.855,22.855
			c0,12.603,10.253,22.855,22.855,22.855c9.975,0,18.473-6.427,21.585-15.355h58.625c-24.103,15.852-40.303,42.775-41.303,73.478
			c-8.957,3.096-15.41,11.608-15.41,21.604c0,12.603,10.253,22.855,22.855,22.855c12.603,0,22.855-10.253,22.855-22.855
			c0-9.948-6.391-18.427-15.28-21.56c1.471-38.233,31.119-69.362,68.728-73.136l-32.661,44.914
			c-2.283,3.139-2.856,7.191-1.534,10.839c1.32,3.643,4.353,6.383,8.111,7.33c6.799,1.711,9.966,6.167,9.967,13.926l-0.135,10.504
			c-6.621,1.396-11.608,7.281-11.608,14.312v65.169H15V69.077c0-16.168,13.153-29.321,29.321-29.321h340.703
			c4.142,0,7.5-3.358,7.5-7.5c0-4.142-3.358-7.5-7.5-7.5H44.321C19.882,24.755,0,44.638,0,69.077v314.871
			c0,13.119,10.673,23.792,23.792,23.792h54.565c4.142,0,7.5-3.358,7.5-7.5c0-4.142-3.358-7.5-7.5-7.5H23.792
			c-4.848,0-8.792-3.944-8.792-8.792v-45.064h482v45.064c0,4.848-3.944,8.792-8.792,8.792H108.976c-4.142,0-7.5,3.358-7.5,7.5
			c0,4.142,3.358,7.5,7.5,7.5h79.329c-4.864,16.48-14.653,37.038-34.352,51.988c-5.323,4.04-7.384,10.743-5.252,17.078
			c2.134,6.342,7.836,10.44,14.527,10.44h185.547c6.69,0,12.393-4.098,14.527-10.44c2.132-6.335,0.07-13.039-5.253-17.079
			c-19.657-14.918-29.464-35.407-34.354-51.987h164.514c13.119,0,23.792-10.673,23.792-23.792v-83.636
			C512,296.169,508.642,292.812,504.5,292.812z M339.997,243.731c4.331,0,7.855,3.524,7.855,7.855s-3.524,7.855-7.855,7.855
			c-4.332,0-7.855-3.524-7.855-7.855S335.666,243.731,339.997,243.731z M386.348,141.148c4.332,0,7.855,3.524,7.855,7.855
			c0,4.332-3.524,7.855-7.855,7.855s-7.855-3.524-7.855-7.855C378.493,144.672,382.017,141.148,386.348,141.148z M125.652,156.859
			c-4.332,0-7.855-3.524-7.855-7.855s3.524-7.855,7.855-7.855c4.331,0,7.855,3.524,7.855,7.855S129.983,156.859,125.652,156.859z
			 M179.858,251.586c0,4.331-3.523,7.855-7.855,7.855c-4.331,0-7.855-3.524-7.855-7.855s3.524-7.855,7.855-7.855
			C176.335,243.731,179.858,247.255,179.858,251.586z M230.462,206.933l24.37-33.512l24.37,33.512
			c-10.698,4.437-16.727,14.066-16.727,27.062c0,0.082,0.001,0.164,0.004,0.247l0.324,9.844H247.06l0.129-10.09
			C247.189,220.999,241.159,211.369,230.462,206.933z M276.553,323.884h-41.107v-64.798h41.107V323.884z M348.979,471.676
			c0.097,0.074,0.13,0.12,0.132,0.12c0.03,0.108-0.061,0.37-0.146,0.429c0,0-0.053,0.021-0.192,0.021H163.227
			c-0.132,0-0.187-0.019-0.188-0.019c-0.09-0.063-0.181-0.325-0.154-0.423c0,0,0.03-0.048,0.136-0.128
			c24.625-18.688,35.789-44.56,40.851-63.937h104.257C313.226,427.268,324.419,453.038,348.979,471.676z"/>
	</g>
</g>
<g>
	<g>
		<path d="M217.365,81.465c-4.142,0-7.5,3.358-7.5,7.5v1.681c0,4.142,3.358,7.5,7.5,7.5c4.142,0,7.5-3.358,7.5-7.5v-1.681
			C224.865,84.823,221.507,81.465,217.365,81.465z"/>
	</g>
</g>
<g>
	<g>
		<path d="M256,81.465c-4.142,0-7.5,3.358-7.5,7.5v1.681c0,4.142,3.358,7.5,7.5,7.5c4.142,0,7.5-3.358,7.5-7.5v-1.681
			C263.5,84.823,260.142,81.465,256,81.465z"/>
	</g>
</g>
<g>
	<g>
		<path d="M294.635,81.465c-4.142,0-7.5,3.358-7.5,7.5v1.681c0,4.142,3.358,7.5,7.5,7.5c4.142,0,7.5-3.358,7.5-7.5v-1.681
			C302.135,84.823,298.777,81.465,294.635,81.465z"/>
	</g>
</g>
<g>
	<g>
		<path d="M256,347.139c-10.296,0-18.673,8.377-18.673,18.673c0,10.296,8.377,18.673,18.673,18.673s18.673-8.377,18.673-18.673
			C274.673,355.516,266.296,347.139,256,347.139z M256,369.485c-2.025,0-3.673-1.648-3.673-3.673c0-2.025,1.648-3.673,3.673-3.673
			s3.673,1.648,3.673,3.673C259.673,367.837,258.025,369.485,256,369.485z"/>
	</g>
</g>

</svg>
