<?xml version="1.0"?>
<svg xmlns="http://www.w3.org/2000/svg" viewBox="0 0 512 512" width="512" height="512"><g><path d="M304,272H280V255.979A39.963,39.963,0,0,0,296,224V200a40,40,0,0,0-80,0v24a39.963,39.963,0,0,0,16,31.979V272H208a40.045,40.045,0,0,0-40,40v32a8,8,0,0,0,8,8H336a8,8,0,0,0,8-8V312A40.045,40.045,0,0,0,304,272Zm-72-72a24,24,0,0,1,48,0v24a24,24,0,0,1-48,0Zm16,64h16v8H248Zm80,72H312V320a8,8,0,0,0-16,0v16H216V320a8,8,0,0,0-16,0v16H184V312a24.028,24.028,0,0,1,24-24h96a24.028,24.028,0,0,1,24,24Z"/><path d="M256,104c-83.813,0-152,68.187-152,152s68.187,152,152,152,152-68.187,152-152S339.813,104,256,104Zm0,288c-74.99,0-136-61.009-136-136s61.01-136,136-136,136,61.009,136,136S330.99,392,256,392Z"/><path d="M496,248H479.844A223.951,223.951,0,0,0,264,32.156V16a8,8,0,0,0-16,0V32.156A223.951,223.951,0,0,0,32.156,248H16a8,8,0,0,0,0,16H32.156A223.951,223.951,0,0,0,248,479.844V496a8,8,0,0,0,16,0V479.844A223.951,223.951,0,0,0,479.844,264H496a8,8,0,0,0,0-16ZM264,463.831V424a8,8,0,0,0-16,0v39.831C139.659,459.712,52.288,372.341,48.169,264H56a8,8,0,0,0,0-16H48.169C52.288,139.659,139.659,52.288,248,48.169V88a8,8,0,0,0,16,0V48.169C372.341,52.288,459.712,139.659,463.831,248H424a8,8,0,0,0,0,16h39.831C459.712,372.341,372.341,459.712,264,463.831Z"/><path d="M88,248H80a8,8,0,0,0,0,16h8a8,8,0,0,0,0-16Z"/></g></svg>
