<?xml version="1.0" encoding="iso-8859-1"?>
<svg version="1.1" xmlns="http://www.w3.org/2000/svg" xmlns:xlink="http://www.w3.org/1999/xlink" x="0px" y="0px"
	 viewBox="0 0 508 508" style="enable-background:new 0 0 508 508;" xml:space="preserve">
<g>
	<g>
		<path d="M254,0C113.9,0,0,113.9,0,254s113.9,254,254,254c34.1,0,67.2-6.6,98.3-19.7c14.9-6.3,24.6-21,24.6-37.6v-30.4
			c1.6-1.4,16.3-15.9,16.3-15.9c12.8-12.8,12.8-33.6,0-46.3L370,334.9c-12.4-12.4-34-12.4-46.3,0l-21.4,21.4
			c-7.3,7.3-19.3,7.3-26.6,0L163.2,243.9c-7.3-7.3-7.3-19.3,0-26.6l21.4-21.4c6.2-6.2,9.6-14.4,9.6-23.2c0-8.8-3.4-17-9.6-23.2
			l-34.8-34.8c-12.8-12.8-33.6-12.8-46.3,0L92,126.3c-47.9,47.9-47.9,125.9,0,173.8L207.9,416c24,24,55.4,35.9,86.9,35.9
			c22.9,0,45.8-6.4,65.8-19.1v17.8c0,9.9-5.7,18.8-14.5,22.5c-29.1,12.3-60.1,18.5-92,18.5C123,491.6,16.4,385,16.4,254
			S123,16.4,254,16.4S491.6,123,491.6,254H508C508,113.9,394.1,0,254,0z M358.5,346.5l23.2,23.2c6.4,6.4,6.4,16.8,0,23.2l-46.4-46.4
			C341.5,340.3,352.3,340.3,358.5,346.5z M126.7,121.5c4.2,0,8.4,1.6,11.6,4.8l34.8,34.8c3.1,3.1,4.8,7.2,4.8,11.6
			s-1.7,8.5-4.8,11.6l-57.9-57.9C118.4,123.1,122.5,121.5,126.7,121.5z M219.4,404.4L103.6,288.6C62,247,62,179.5,103.6,137.9
			l57.9,57.9l-9.9,9.9c-13.7,13.7-13.7,36.1,0,49.8L264,367.9c13.7,13.7,36.1,13.7,49.8,0l9.9-9.9l46.4,46.4
			C328.5,446,261,446,219.4,404.4z"/>
	</g>
</g>
</svg>
