<?xml version="1.0" encoding="UTF-8"?>
<svg width="733" height="801" viewBox="0 0 733 801" fill="none" xmlns="http://www.w3.org/2000/svg">
<g id="&#208;&#160;&#208;&#181;&#209;&#129;&#209;&#131;&#209;&#128;&#209;&#129; 2 1">
<g clip-path="url(#clip0)">
<g id="Group">
<g id="Group_2">
<g id="Group_3" style="mix-blend-mode:color-burn">
<g id="Vector" style="mix-blend-mode:color-burn">
<path d="M732.73 173.79C728.01 171.21 723.31 168.59 718.73 165.88C721.15 164.08 723.95 162.62 726.6 161.02L732.75 157.45V156.05L725.89 159.77C722.77 161.53 719.55 162.98 716.61 165.27L715.61 166.03L716.61 166.72C719.5 168.72 722.46 170.47 725.45 172.18L732.7 176.43L732.73 173.79Z" fill="white"/>
</g>
<g id="Vector_2" style="mix-blend-mode:color-burn">
<path d="M641.46 295.92L713.68 337.16L714.29 337.51V338.25C714.62 352.12 714.7 366 714.9 379.87L715.43 421.5V424.41L713 423C700.91 416.11 689.19 408.89 677.27 401.86L659.46 391.24L650.55 385.92L646.12 383.23C644.376 382.344 642.891 381.021 641.81 379.39C640.905 377.645 640.51 375.68 640.67 373.72V368.54V358.17L640.75 337.43L640.97 316.69C641.1 309.77 641 302.79 641.46 295.92ZM641.46 295.92C641.59 309.74 642.11 323.56 642.41 337.39L642.81 358.13L643 368.5L643.09 373.69C642.968 375.198 643.277 376.71 643.98 378.05C644.873 379.276 646.064 380.253 647.44 380.89L651.93 383.48L660.93 388.72L678.83 399.21C690.77 406.15 702.66 413.34 714.65 420.06L712.16 421.53L711.94 379.9C711.94 366.03 711.73 352.15 711.8 338.27L712.43 339.36L641.46 295.92Z" fill="white"/>
</g>
<g id="Vector_3" style="mix-blend-mode:color-burn">
<path d="M641.34 288L641.54 247.85V227.78V217.78C641.54 216.09 641.49 214.48 641.54 212.72C641.534 211.77 641.747 210.832 642.163 209.979C642.58 209.125 643.188 208.38 643.94 207.8L678.28 186.8L695.52 176.5L704.14 171.36L708.45 168.79L710.6 167.5C711.37 167.09 712.2 166.72 713 166.33L714.9 165.4L715.29 167.5C715.43 168.23 715.73 169.02 715.89 170.14C715.905 170.43 715.905 170.72 715.89 171.01V172.95L715.8 178.12L715.63 188.47L715.29 209.17L714.83 229.86L714.57 240.21L714.44 245.38L714.36 248.02C714.303 249.037 714.001 250.025 713.48 250.9C712.29 252.73 710.48 253.38 709.06 254.25L704.56 256.81L695.56 261.92L677.56 272.15L659.63 282.5L650.63 287.7C647.63 289.36 644.76 291.35 641.52 292.58L641.34 288ZM641.34 288L641.58 292.57C644.8 291.31 647.64 289.29 650.63 287.57L659.52 282.27L677.29 271.66L694.98 260.89L703.82 255.51L708.24 252.82C709.72 251.88 711.24 251.15 711.95 249.95C712.66 248.75 712.46 247.14 712.48 245.37V240.19V229.84V209.1L712.58 188.4V178.05V172.87V171.58V170.93C712.59 170.79 712.59 170.65 712.58 170.51C712.51 169.92 712.24 169.07 712.05 168.1L714.35 169.27C713.64 169.61 712.94 169.9 712.22 170.27L710 171.53L705.66 174.05L696.98 179.05L679.62 189.13L644.83 209C642.22 210.61 643.01 214.46 642.76 217.71L642.49 227.71L642 247.84L641.34 288Z" fill="white"/>
</g>
<g id="Vector_4" style="mix-blend-mode:color-burn">
<path d="M659.84 304L651.37 299L647.14 296.52L644.05 294.52C645.14 293.78 646.23 293.04 647.39 292.39L652 290L661.11 285L679.35 275.11L697.49 265.11L706.56 260.11L711.1 257.59C712.67 256.7 713.96 255.96 715.1 255.99C715.715 256.007 716.318 256.168 716.86 256.46L719.02 257.68L723.55 260.21L732.55 265.27L732.73 265.37V261.74L725.11 257.36L720.62 254.78C719.82 254.34 719.21 253.97 718.25 253.48C717.251 252.977 716.149 252.713 715.03 252.71C712.62 252.76 710.87 254.03 709.47 254.79L705 257.3L696 262.44L678 272.72L660 283.15L651 288.37L646.56 291C645.07 291.88 643.67 293 642.22 294L641.22 294.66L642.22 295.27L646.44 297.85L650.74 300.21L659.35 304.92L676.55 314.38L710.81 333.52L676.81 313.98L659.84 304Z" fill="white"/>
</g>
<g id="Vector_5" style="mix-blend-mode:color-burn">
<path d="M732.73 325.38L730.34 326.74L720.88 332.14C719.371 333.14 717.737 333.937 716.02 334.51C714.219 334.844 712.359 334.468 710.83 333.46C712.352 334.494 714.218 334.892 716.03 334.57C717.761 334.014 719.412 333.234 720.94 332.25L730.46 326.96L732.73 325.7V325.38Z" fill="white"/>
</g>
<g id="Vector_6" style="mix-blend-mode:color-burn">
<path d="M722.47 334.28L731.83 328.84L732.73 328.32V328L731.73 328.61L722.42 334.16C720.82 335.007 719.31 336.012 717.91 337.16C717.278 337.812 716.79 338.59 716.476 339.442C716.163 340.295 716.031 341.204 716.09 342.11C716.041 341.207 716.181 340.304 716.501 339.458C716.822 338.613 717.315 337.844 717.95 337.2C719.357 336.08 720.871 335.102 722.47 334.28V334.28Z" fill="white"/>
</g>
<g id="Vector_7" style="mix-blend-mode:color-burn">
<path d="M732.73 410.19L724.21 415.38C721.6 416.98 718.99 418.58 716.31 419.98C716.19 418.76 716.05 417.55 716.01 416.31V411.36V401.47L715.96 381.68L716.14 342.11L715.5 381.68L715 401.46L714.75 411.35L714.62 416.29C714.62 417.95 714.81 419.63 714.9 421.29L714.96 422.42L716.03 421.92C719.23 420.45 722.19 418.7 725.19 416.99L732.76 412.68L732.73 410.19Z" fill="white"/>
</g>
<g id="Vector_8" style="mix-blend-mode:color-burn">
<path d="M732.73 259.22L726.21 255.22L721.79 252.54C720.418 251.889 719.245 250.885 718.39 249.63C717.749 248.268 717.497 246.756 717.66 245.26V240.08V229.74L717.57 209.04L717.49 188.34L717.44 178V172.82L717.55 170.25C718.316 170.591 719.061 170.978 719.78 171.41L724.25 174.04L732.76 179.04V175.32L725.92 171.24C722.961 169.35 719.881 167.657 716.7 166.17L714.41 165.17L714.33 167.62L714.15 172.87L714.21 178.04L714.33 188.39L714.8 229.77L714.93 240.11L715.02 245.29C714.889 247.248 715.305 249.204 716.22 250.94C717.315 252.553 718.825 253.842 720.59 254.67L725.07 257.25L732.76 261.68L732.73 259.22Z" fill="white"/>
</g>
<g id="Vector_9" style="mix-blend-mode:color-burn">
<path d="M717.1 99.46L717.35 89.46C717.52 86.15 717.01 82.53 719.55 80.68C723.86 78.12 728.28 75.58 732.73 73.05V70.65C728.01 73.53 723.28 76.44 718.52 79.48C717.818 80.0955 717.245 80.8433 716.833 81.6808C716.422 82.5182 716.179 83.4287 716.12 84.36C715.99 86.16 716.12 87.76 716.12 89.45V99.45V119.53L716 159.69L716.66 119.54L717.1 99.46Z" fill="white"/>
</g>
<g id="Vector_10" style="mix-blend-mode:color-burn">
<path d="M732.73 155L725.19 159.5C722.295 161.348 719.289 163.018 716.19 164.5L715.96 159.67L716.13 164.54C719.35 163.24 722.22 161.28 725.23 159.6L732.68 155.26L732.73 155Z" fill="white"/>
</g>
<g id="Vector_11" style="mix-blend-mode:color-burn">
<path d="M732.73 6.08L721.86 0H721.78L732.73 6.29V6.08Z" fill="white"/>
</g>
<g id="Vector_12" style="mix-blend-mode:color-burn">
<path d="M732.73 67.15L724 72L719.47 74.51C718.248 75.314 716.847 75.8051 715.39 75.94C713.96 75.8642 712.577 75.401 711.39 74.6L706.87 72.07L697.87 67.01L679.78 56.9C668.15 50.31 656.24 44.1 644.7 37.45L645.7 36.55C646.441 36.0574 647.209 35.6067 648 35.2L652.68 32.47L662 27L680.73 16.08L699.55 5.35L708.91 0H708.65L699.42 5.13L680.48 15.65L661.44 26L651.92 31.18L647.16 33.77C646.32 34.1931 645.506 34.6639 644.72 35.18L642.59 36.88L641.59 37.66L642.65 38.35C648.49 42.14 654.51 45.42 660.44 48.98L678.31 59.41L696.25 69.73L705.25 74.89L709.74 77.47C711.444 78.5856 713.433 79.1894 715.47 79.21C717.467 79.0575 719.393 78.404 721.07 77.31L725.56 74.74L732.74 70.65L732.73 67.15Z" fill="white"/>
</g>
<g id="Vector_13" style="mix-blend-mode:color-burn">
<path d="M703.61 0L698 3.25L679.38 14.07L660.65 24.73L651.28 30.06L646.6 32.72C645.466 33.4208 644.287 34.0455 643.07 34.59C642.95 31.59 643.01 28.59 643.07 25.51L643.33 15.19L643.73 0H641V15.16V25.49C641 28.92 641 32.37 641.3 35.87L641.4 37L642.49 36.65C644.22 36.0012 645.866 35.1449 647.39 34.1L651.99 31.3L661.2 25.69L679.64 14.5L698.14 3.5L704 0H703.61Z" fill="white"/>
</g>
<g id="Vector_14" style="mix-blend-mode:color-burn">
<path d="M642.13 38.9L678 59.29L714.34 80.2L714.95 80.55V81.29C715.28 95.1 715.37 108.92 715.57 122.73L716.1 164.17V166.56L713.84 165.76C713.09 165.49 712.31 165.3 711.33 164.93C710.46 164.534 709.621 164.073 708.82 163.55L704.36 160.88L695.43 155.55L677.58 144.89L659.73 134.23L650.81 128.9L646.37 126.2L644.12 124.83C643.192 124.275 642.413 123.503 641.85 122.58C641.33 121.617 641.078 120.533 641.12 119.44V116.84V111.65V101.25L641.19 80.46L641.4 59.67L641.51 49.27L641.59 44.08V41.48C641.84 40.6 642 39.73 642.13 38.9ZM642.13 38.9C642.03 39.78 641.93 40.63 641.87 41.48L641.95 44.07L642.12 49.27L642.39 59.66L642.94 80.45L643.34 101.24L643.54 111.63L643.64 116.83L643.69 119.43C643.668 120.078 643.82 120.72 644.13 121.29C644.65 122.29 646.28 122.98 647.79 123.89L652.29 126.49L661.29 131.75L679.21 142.28L697.14 152.8L706.14 158.07L710.62 160.7C711.261 161.12 711.929 161.497 712.62 161.83L715.04 162.62L712.82 164.2L712.59 122.76C712.59 108.94 712.37 95.13 712.44 81.31L713 82.4L642.13 38.9Z" fill="white"/>
</g>
<g id="Vector_15" style="mix-blend-mode:color-burn">
<path d="M644.49 127L679.18 146.4L696.59 155.98L705.31 160.75L709.66 163.13L713.91 165.8L714.98 166.48L713.87 167.13L678.09 188L660.09 198.26L651.09 203.39L646.59 205.95C644.934 207.088 643.012 207.777 641.01 207.95C638.972 207.9 636.992 207.261 635.31 206.11L630.82 203.53L621.82 198.37L603.9 188L586 177.58L577.06 172.34C574.06 170.63 571.11 168.85 568.21 166.89L567.16 166.18L568.16 165.41C571.127 163.293 574.257 161.414 577.52 159.79L587.03 154.62L606.03 144.26L625 133.73L634.46 128.47C635.995 127.512 637.619 126.705 639.31 126.06C640.191 125.846 641.107 125.819 642 125.981C642.892 126.143 643.74 126.49 644.49 127V127ZM644.49 127C643.734 126.508 642.884 126.179 641.994 126.034C641.103 125.89 640.193 125.932 639.32 126.16C637.644 126.823 636.037 127.647 634.52 128.62L625.11 134L606.31 144.75L587.59 155.66L578.24 161.12C575.088 162.799 572.078 164.732 569.24 166.9L569.19 165.43C580.98 172.43 593.37 178.72 605.35 185.54L623.43 195.65L632.43 200.7L636.96 203.22C638.13 204.069 639.517 204.568 640.96 204.66C642.419 204.519 643.816 204.006 645.02 203.17L649.54 200.66L658.6 195.66L676.72 185.66L713.1 165.85V167.17L709 164.32L704.71 161.81L696.14 156.81L678.98 146.81L644.49 127Z" fill="white"/>
</g>
<g id="Vector_16" style="mix-blend-mode:color-burn">
<path d="M495.57 297.29L530.74 317.83L548.4 328L557.24 333.06L561.66 335.59C562.468 336.005 563.223 336.516 563.91 337.11C564.647 337.804 565.154 338.708 565.36 339.7C565.92 353.58 566.06 366.94 566.36 380.58L566.64 400.94L566.78 411.12L566.85 416.21V418.75C566.788 419.689 566.671 420.624 566.5 421.55L566.21 423.84L564.13 422.76C562.57 421.95 560.96 421.18 559.46 420.32L555.03 417.66L546.18 412.35L528.47 401.74L510.92 391L502.12 385.61L497.71 382.91C496.33 382.04 494.52 381.17 493.45 379.39C492.38 377.61 492.51 375.53 492.52 373.91V368.75L492.6 358.43L492.74 337.78C492.79 324.02 492.5 310.25 492.83 296.49C493.77 296.653 494.689 296.922 495.57 297.29V297.29ZM495.57 297.29C494.704 296.916 493.798 296.641 492.87 296.47V296.47C492.7 310.22 493.15 323.99 493.27 337.76L493.74 358.4L493.98 368.73L494.1 373.89C494.1 375.66 494.1 377.24 494.92 378.44C495.74 379.64 497.14 380.37 498.66 381.24L503.14 383.81L512.14 388.93L530.04 399.23L547.87 409.64L556.79 414.85L561.25 417.45L565.72 419.79L563.34 421C563.491 420.26 563.601 419.512 563.67 418.76V411.12V400.94V380.57C563.67 367.07 563.94 353.25 563.85 340.01C563.65 338.58 562.49 337.68 560.99 336.83L556.65 334.17L547.96 328.86L530.5 318.24L495.57 297.29Z" fill="white"/>
</g>
<g id="Vector_17" style="mix-blend-mode:color-burn">
<path d="M492.91 287.84L493.11 247.68L493.06 227.6V217.6C492.998 215.893 493.035 214.183 493.17 212.48C493.398 210.617 494.332 208.913 495.78 207.72C507.3 200.41 518.69 193.72 530.14 186.72L547.39 176.43L556.01 171.3L560.33 168.73L564.86 166.36L567.11 165.19L567.24 167.74L567.5 173.01L567.42 178.2L567.25 188.56L566.91 209.29L566.46 230.02L566.2 240.38L566.07 245.56C566.18 247.46 565.772 249.354 564.89 251.04C563.829 252.605 562.359 253.85 560.64 254.64L556.13 257.2L547.13 262.33L529.13 272.59L493.24 293.37V293.31L492.91 287.84ZM492.91 287.84L493.2 293.26H493.15L528.77 272L546.47 261.2L555.32 255.8L559.75 253.1C561.18 252.424 562.395 251.364 563.26 250.04C563.926 248.615 564.196 247.036 564.04 245.47V240.29V229.92V209.18L564.14 188.45L564.19 178.08V172.9L563.99 167.81L566.37 169.19L561.97 171.42L557.63 173.93L548.94 178.93L531.5 189C519.94 195.63 508.04 202.19 496.75 208.87C495.551 209.787 494.758 211.137 494.54 212.63C494.372 214.261 494.291 215.9 494.3 217.54L494.04 227.54L493.57 247.62L492.91 287.84Z" fill="white"/>
</g>
<g id="Vector_18" style="mix-blend-mode:color-burn">
<path d="M562 333.18L527.71 314L510.5 304.52L501.88 299.81L497.57 297.45L493.39 294.75L492.39 294.08L493.47 293.45L529.23 272.57L547.23 262.3L556.23 257.17L560.72 254.61C562.1 253.84 563.98 252.61 566.27 252.56C568.56 252.51 570.55 253.7 571.93 254.48L576.42 257.06L585.42 262.21L603.37 272.52L621.26 282.93L630.19 288.17L634.65 290.79C636.13 291.7 637.55 292.79 639 293.73L640.13 294.49L638.99 295.23C635.89 297.23 632.71 298.99 629.51 300.7L619.94 305.9L600.81 316.32L581.81 326.9L572.29 332.2C570.7 333.04 569.16 334.12 567.29 334.41C565.436 334.656 563.555 334.219 562 333.18ZM562 333.18C563.533 334.174 565.369 334.588 567.18 334.35C568.99 334.04 570.51 332.95 572.09 332.09L581.54 326.68L600.46 315.87L619.28 304.87L628.68 299.38C631.84 297.57 634.97 295.73 637.91 293.69V295.19C636.47 294.29 635.09 293.32 633.6 292.46L629.06 290L620 285L601.87 275L583.77 265L574.77 259.95L570.25 257.43C568.68 256.51 567.53 255.87 566.25 255.89C564.97 255.91 563.82 256.56 562.25 257.46L557.73 259.97L548.68 264.97L530.57 274.97L494.21 294.77V293.47L498.21 296.23L502.45 298.72L510.93 303.72L527.93 313.62L562 333.18Z" fill="white"/>
</g>
<g id="Vector_19" style="mix-blend-mode:color-burn">
<path d="M567.69 341.86C567.609 340.964 567.749 340.061 568.098 339.231C568.447 338.401 568.993 337.67 569.69 337.1C571.16 336.1 572.75 335.23 574.27 334.28L583.51 328.77L601.98 317.77L620.35 306.59L629.54 300.99C632.65 299.17 635.54 297.14 638.87 295.54L640 295L640.2 296.2L640.61 298.76C640.701 299.657 640.735 300.559 640.71 301.46V306.64V316.99V337.7L640.61 358.41L640.56 368.76V373.94C640.48 375.56 640.84 377.57 639.64 379.81C639.045 380.798 638.2 381.612 637.19 382.17L635 383.48L630.52 386.08L621.57 391.27L603.66 401.66L585.66 411.89L576.66 417L572.16 419.56L569.91 420.84C569.491 421.108 569.045 421.332 568.58 421.51L567.32 421.83L566.39 422.07L566.32 421.13C566.07 417.76 566.24 414.48 566.32 411.18L566.57 401.27L567.04 381.47L567.69 341.86ZM567.69 341.86L567.5 381.47V401.28V411.19C567.5 414.49 567.45 417.82 567.79 421.03L566.79 420.33L568.03 419.97C568.356 419.813 568.67 419.633 568.97 419.43L571.19 418.08L575.61 415.39L584.45 410L602.15 399.24L620 388.63L628.89 383.33L633.34 380.68L635.56 379.36C636.071 379.079 636.499 378.669 636.8 378.17C637.33 377.33 637.24 375.69 637.28 373.91L637.37 368.73L637.54 358.38L637.89 337.67L638.37 316.97L638.63 306.62L638.77 301.44C638.82 300.617 638.82 299.793 638.77 298.97L638.43 296.42L639.69 297.09C636.5 298.5 633.43 300.51 630.3 302.21L621 307.53L602.31 318.18L583.68 329L574.39 334.4C572.85 335.33 571.24 336.15 569.78 337.16C569.074 337.713 568.515 338.431 568.151 339.25C567.786 340.069 567.628 340.965 567.69 341.86Z" fill="white"/>
</g>
<g id="Vector_20" style="mix-blend-mode:color-burn">
<path d="M568.07 250.7C567.22 223.61 566.55 196.07 566.07 168.44V166.61L567.62 167.18L569.1 167.73L570.32 168.31L572.68 169.48L577.3 171.9C580.37 173.53 583.38 175.24 586.41 176.9L604.41 187.22L622.34 197.75C628.34 201.35 634.21 204.81 640.09 208.84L640.76 209.3V210.16L640.99 251.68C640.99 265.52 641.21 279.35 641.13 293.2V295.49L639.19 294.32L603.39 272.51L568.07 250.7ZM568.07 250.7L604.53 271.39L640.53 292.13L638.53 293.25C638.21 279.41 638.14 265.57 637.93 251.73L637.41 210.22L638.09 211.54C632.57 207.7 626.55 204.1 620.68 200.54L602.87 189.89L584.87 179.46L575.87 174.36L571.35 171.86L569.08 170.67L567.97 170.11L567.04 169.7L568.55 168.45C568.57 195.63 568.42 222.94 568.07 250.7Z" fill="white"/>
</g>
<g id="Vector_21" style="mix-blend-mode:color-burn">
<path d="M567.35 160.92L567.53 120.27V99.9499L567.48 89.7899V84.7099C567.436 83.7536 567.602 82.7993 567.964 81.9134C568.327 81.0275 568.878 80.2312 569.58 79.5799C570.958 78.5021 572.419 77.5357 573.95 76.6899L578.29 74.0599L586.98 68.7799L604.36 58.2499C616.02 51.3399 627.61 44.3599 639.36 37.5499L641.7 36.1899L641.83 38.9299C642.16 45.9299 641.75 52.7699 641.72 59.6999L641.38 80.3999L640.92 101.09L640.65 111.44L640.52 116.62C640.46 118.27 640.6 120.25 639.65 122.09C638.7 123.93 636.84 124.95 635.43 125.73L630.93 128.29L621.93 133.4L603.93 143.64L585.94 154L576.94 159.2C573.94 160.93 571.01 162.73 567.88 164.2C567.616 163.123 567.438 162.026 567.35 160.92V160.92ZM567.35 160.92C567.462 162.03 567.66 163.13 567.94 164.21V164.21C571.05 162.7 573.94 160.86 576.94 159.1L585.83 153.8L603.61 143.19L621.29 132.42L630.14 127.04L634.56 124.34C636.1 123.44 637.4 122.64 638.01 121.34C638.62 120.04 638.54 118.42 638.54 116.65V111.48V101.12V80.4199C638.54 66.6399 638.81 52.7399 638.59 39.0699L641.06 40.4499C629.28 47.0999 617.58 53.9699 605.84 60.7299L588 70.6999L579.16 75.6999L574.74 78.1999C573.282 78.9475 571.885 79.8068 570.56 80.7699C569.998 81.2574 569.552 81.8641 569.255 82.5457C568.957 83.2272 568.816 83.9666 568.84 84.7099L568.71 89.7899L568.49 99.9999L568 120.28L567.35 160.92Z" fill="white"/>
</g>
<g id="Vector_22" style="mix-blend-mode:color-burn">
<path d="M587.16 3.73L581 0H576.48L577.12 0.37L586.12 5.54L604 15.86C616 22.6 627.92 29.63 640.11 36.12L604.86 14.46L587.16 3.73Z" fill="white"/>
</g>
<g id="Vector_23" style="mix-blend-mode:color-burn">
<path d="M639.47 0L639.87 15.39L640.15 25.76C640.375 29.2097 640.375 32.6703 640.15 36.12C640.545 32.6814 640.715 29.2207 640.66 25.76L640.77 15.38L640.91 0H639.47Z" fill="white"/>
</g>
<g id="Vector_24" style="mix-blend-mode:color-burn">
<path d="M631 32L622.26 27.22L604.8 17.63L573.19 0H573.1L604.53 18L621.74 28L630.34 33C632.81 34.51 635.44 35.89 637.74 37.56C635.19 39.17 632.53 40.64 629.82 42.09L620.74 47.02L602.57 57L584.49 67L575.49 72L570.97 74.51C569.39 75.39 568.13 76.15 566.97 76.15C565.81 76.15 564.68 75.55 563.07 74.64L558.56 72.12L549.56 67.12L531.41 57.05C519.81 50.46 507.81 44.33 496.41 37.61L497.47 36.76C498.172 36.2626 498.903 35.8084 499.66 35.4L504.3 32.69L513.59 27.29L532.18 16.48L550.83 5.83L560.17 0.51L561.05 0H560.82L560.1 0.4L550.71 5.61L531.91 16L513 26.3L503.55 31.43L498.85 34C498.018 34.4185 497.213 34.8894 496.44 35.41L494.3 37L493.3 37.72L494.3 38.45C497.17 40.53 500.19 42.12 503.15 43.9L512.07 49.13L530 59.56L547.93 69.85L556.93 75L561.41 77.57C562.74 78.34 564.75 79.64 567.09 79.5C569.43 79.36 571.18 78.14 572.58 77.37L577 74.81L586 69.69L604 59.45L621.81 49L630.74 43.8C633.74 42.09 636.74 40.35 639.58 38.34L640.49 37.7L639.61 37.04C636.848 35.1825 633.972 33.4992 631 32V32Z" fill="white"/>
</g>
<g id="Vector_25" style="mix-blend-mode:color-burn">
<path d="M554.75 0L549.75 2.9L531.09 13.73L512.34 24.4L503 29.73C500.21 31.27 497.45 32.98 494.62 34.33C494.519 33.8811 494.442 33.4271 494.39 32.97C494.32 32.32 494.39 31.33 494.39 30.51L494.52 25.33L494.77 15L495.12 0H492.37V15V25.36V30.53C492.37 31.43 492.32 32.17 492.44 33.24C492.56 34.31 492.83 35.01 492.97 35.81L493.18 36.96L494.23 36.46C497.58 34.86 500.5 32.85 503.61 31.02L512.83 25.41L531.27 14.21L549.8 3.21L555.11 0H554.75Z" fill="white"/>
</g>
<g id="Vector_26" style="mix-blend-mode:color-burn">
<path d="M497.87 41.51L532.34 61.64L549.65 71.64L558.31 76.64L562.66 79.14C563.487 79.5857 564.204 80.21 564.759 80.9677C565.315 81.7254 565.694 82.5973 565.87 83.52C566.39 97.07 566.54 110.2 566.87 123.52C567.03 136.86 567.38 150.04 567.32 163.52V164.35L566.62 164.79L565.89 165.26L565.8 165.32H565.75C565.544 165.409 565.33 165.476 565.11 165.52C564.911 165.552 564.709 165.552 564.51 165.52C564.344 165.493 564.182 165.443 564.03 165.37H563.97L563.82 165.3L563.21 165.01L561.99 164.43C561.208 164.047 560.447 163.623 559.71 163.16L555.29 160.51L546.46 155.21L528.82 144.5C517.02 137.5 505.37 130.17 493.63 123.02L493.18 122.74V122.24L493.43 80.71L493.32 39.2V39.15L497.87 41.51ZM497.87 41.51L493.34 39.22L494 80.71L495 122.22L494.55 121.44C506.48 128.3 518.46 135 530.3 142L548.09 152.4L556.99 157.61L561.43 160.21C562.145 160.668 562.882 161.088 563.64 161.47L564.74 162.01L565.29 162.28L565.43 162.35C565.43 162.35 565.48 162.35 565.43 162.35C565.168 162.229 564.876 162.187 564.59 162.23C564.32 162.29 564.4 162.29 564.59 162.23L564.45 162.29L564.81 162.05L564.11 163.33C564.34 150.19 564.11 136.76 564.11 123.49C564.11 110.22 564.37 96.74 564.3 83.7C564.04 80.7 560.3 79.52 557.64 77.7L549.13 72.49L532.1 62L497.87 41.51Z" fill="white"/>
</g>
<g id="Vector_27" style="mix-blend-mode:color-burn">
<path d="M496.25 127L530.74 146.27L548.06 155.79L556.73 160.53L561.06 162.9L565.28 165.54L566.36 166.21L565.25 166.86L529.45 187.77L511.45 198.04L502.45 203.17L497.95 205.73C496.51 206.51 494.84 207.73 492.48 207.88C490.12 208.03 488.13 206.67 486.79 205.93L482.3 203.35L473.3 198.19L455.3 187.87L437.39 177.44L428.46 172.2C425.413 170.517 422.452 168.681 419.59 166.7L418.59 165.98L419.51 165.24C422.46 162.85 425.71 161.31 428.89 159.55L438.44 154.36L457.54 143.96L476.54 133.39L486.04 128.11C487.64 127.28 489.15 126.18 490.96 125.82C492.809 125.53 494.699 125.952 496.25 127V127ZM496.25 127C494.724 125.994 492.875 125.597 491.07 125.89C489.29 126.25 487.79 127.37 486.2 128.22L476.76 133.61L457.88 144.4L439.09 155.35L429.7 160.83C426.59 162.67 423.32 164.37 420.7 166.67V165.21C423.573 167.078 426.54 168.797 429.59 170.36L438.68 175.36L456.83 185.36L474.92 195.48L483.97 200.48L488.49 203.01C490.11 203.93 491.22 204.67 492.37 204.57C493.52 204.47 494.87 203.76 496.42 202.9L500.95 200.38L510.01 195.38L528.14 185.38L564.53 165.56V166.88L560.45 164.16L556.19 161.66L547.67 156.66L530.6 146.66L496.25 127Z" fill="white"/>
</g>
<g id="Vector_28" style="mix-blend-mode:color-burn">
<path d="M419.1 342.05C419.014 341.147 419.131 340.236 419.44 339.383C419.75 338.531 420.245 337.758 420.89 337.12C422.358 336.075 423.884 335.114 425.46 334.24L434.75 328.69L453.32 317.61L471.8 306.37L481.03 300.74C484.14 298.89 487.1 296.9 490.44 295.28L491.62 294.71L491.72 296.01C491.84 297.75 492.11 299.52 492.12 301.25V306.43V316.79V337.51L492.02 358.22L491.97 368.58V373.76C491.97 375.35 492.14 377.51 490.97 379.62C490.404 380.575 489.627 381.389 488.7 382L486.38 383.36L481.9 386L472.9 391.2L455 401.55L437 411.78L428 416.9C425.026 418.702 421.958 420.344 418.81 421.82L417.75 422.26L417.7 421.15C417.53 417.81 417.6 414.52 417.7 411.23L417.96 401.35L418.43 381.58L419.1 342.05ZM419.1 342.05L418.9 381.59V401.36V411.24C418.9 414.54 418.9 417.83 419.18 421.08L418.06 420.41C421.117 418.856 424.091 417.143 426.97 415.28L435.82 409.9L453.53 399.13L471.32 388.52L480.22 383.22L484.67 380.56L486.8 379.28C487.317 378.952 487.749 378.507 488.06 377.98C488.63 376.98 488.6 375.54 488.63 373.73L488.71 368.55L488.89 358.19L489.23 337.48L489.71 316.77L489.98 306.41L490.11 301.23C490.11 299.51 489.94 297.85 489.87 296.14L491.15 296.87C487.94 298.29 484.83 300.24 481.69 301.98L472.29 307.33L453.58 318L434.88 328.87L425.53 334.31C423.946 335.164 422.41 336.106 420.93 337.13C420.276 337.761 419.772 338.53 419.456 339.382C419.139 340.233 419.017 341.145 419.1 342.05V342.05Z" fill="white"/>
</g>
<g id="Vector_29" style="mix-blend-mode:color-burn">
<path d="M491.12 292.8C487.966 291.392 484.897 289.799 481.93 288.03L472.93 282.92L454.93 272.7L437 262.36L428 257.18L423.51 254.59C422.13 253.75 420.2 252.95 419.03 250.99C417.86 249.03 418.1 246.9 418.03 245.3L417.93 240.13L417.79 229.78L417.55 209.07L417.3 188.37L417.19 178C417.055 174.506 417.108 171.008 417.35 167.52L417.56 165.19L419.72 166.13C422.882 167.632 425.948 169.329 428.9 171.21L437.79 176.52L455.57 187.14L473.34 197.75L482.23 203.06L486.66 205.75C488.01 206.62 489.93 207.47 491.08 209.44C492.23 211.41 491.94 213.54 491.97 215.14V220.32V230.67L491.91 251.37L491.71 272.08L491.61 282.43C491.628 285.893 491.464 289.354 491.12 292.8V292.8ZM491.12 292.8C491.285 289.355 491.265 285.903 491.06 282.46L490.78 272.11L490.23 251.4L489.82 230.7L489.62 220.35L489.52 215.17C489.52 213.37 489.52 211.82 488.87 210.77C488.22 209.72 486.87 208.98 485.3 208.08L480.81 205.49L471.88 200.26L454 189.77L436.14 179.29L427.21 174.05C424.334 172.236 421.348 170.603 418.27 169.16L420.64 167.77C420.386 171.167 420.31 174.575 420.41 177.98L420.46 188.34L420.56 209.05L420.65 229.76V240.11V245.29C420.65 247.09 420.53 248.62 421.19 249.7C421.85 250.78 423.19 251.56 424.7 252.49L429.13 255.17L437.98 260.55L455.68 271.3L473.31 282.16L482.12 287.6C485.014 289.51 488.02 291.247 491.12 292.8V292.8Z" fill="white"/>
</g>
<g id="Vector_30" style="mix-blend-mode:color-burn">
<path d="M419 159.82L419.2 119.55L419.15 99.41V89.35C419.15 87.64 419.08 86.05 419.15 84.25C419.19 83.3042 419.438 82.3787 419.875 81.539C420.312 80.6992 420.928 79.9657 421.68 79.39L456.12 58.33L473.36 48L482 42.84C484.871 41.0192 487.835 39.3502 490.88 37.84L493.14 36.76L493.25 39.23L493.49 44.49L493.41 49.66L493.24 60.01L492.9 80.7L492.45 101.39L492.19 111.73L492.05 116.91C492.163 118.806 491.747 120.696 490.85 122.37C489.769 123.913 488.295 125.139 486.58 125.92L482.08 128.48L473.08 133.6L455.08 143.83L419.27 164.58V164.53L419 159.82ZM419 159.82L419.32 164.6L454.87 143.4L472.55 132.63L481.39 127.25L485.81 124.56C487.24 123.876 488.462 122.823 489.35 121.51C490.032 120.1 490.309 118.528 490.15 116.97V111.79L490 101.42V80.72L490.09 60.02L490.14 49.67V44.5L490 39.42L492.37 40.81C489.372 42.2389 486.451 43.8244 483.62 45.56L474.92 50.62L457.49 60.74L422.6 80.65C419.92 82.33 420.6 86.05 420.37 89.36L420.11 99.42L419.64 119.55L419 159.82Z" fill="white"/>
</g>
<g id="Vector_31" style="mix-blend-mode:color-burn">
<path d="M490.07 0C490.21 11.35 490.32 22.7 490.57 34.05L456.57 14.46L431.11 0H430.2L455.43 15.62L491.24 37.41L493.17 38.58V36.29C493.23 24.19 493.11 12.1 493.05 0H490.07Z" fill="white"/>
</g>
<g id="Vector_32" style="mix-blend-mode:color-burn">
<path d="M482.2 31.74L473.49 27L456.09 17.43L424.94 0H424.85L455.85 17.81L473 27.81L481.57 32.81C484.04 34.34 486.72 35.7 489.03 37.38C486.492 39.0948 483.85 40.6511 481.12 42.04L472 47L453.78 56.9L435.67 67L426.61 72L422.07 74.52C420.5 75.41 419.22 76.14 418.07 76.09C417.456 76.0653 416.857 75.8975 416.32 75.6L414.14 74.38L409.61 71.85L400.56 66.79L382.48 56.7L364.32 46.7L355.22 41.7C352.64 40.23 349.92 38.9 347.51 37.26C353.26 33.82 359.1 30.5 364.88 27.1L383.5 16.31L402.21 5.66L411.57 0.33L412.15 0H411.9L411.51 0.22L402.09 5.44L383.25 15.87L364.33 26.14C358.03 29.59 351.69 32.93 345.42 36.46L344.29 37.1L345.35 37.95C348.17 39.9991 351.119 41.863 354.18 43.53L363.13 48.77L381 59.21L399 69.54L408 74.7L412.49 77.28C413.28 77.73 413.91 78.11 414.83 78.59C415.826 79.1072 416.928 79.3846 418.05 79.4C420.46 79.4 422.24 78.12 423.64 77.35L428.14 74.78L437.14 69.64L455.14 59.36L473.06 48.91L482.06 43.69C485.137 42.0354 488.073 40.1324 490.84 38L491.64 37.35L490.83 36.74C488.06 34.72 485.08 33.41 482.2 31.74Z" fill="white"/>
</g>
<g id="Vector_33" style="mix-blend-mode:color-burn">
<path d="M406.84 0L401.45 3.13L382.8 14L364.05 24.67L354.68 30C351.86 31.58 349.06 33.24 346.2 34.62C346.056 34.202 345.959 33.7694 345.91 33.33L345.97 30.82L346.1 25.63L346.36 15.27L346.7 0H344V15.25V25.62V30.8V33.47C344.166 34.3707 344.404 35.2569 344.71 36.12L344.97 37.19L345.97 36.7C349.27 35.06 352.26 33.11 355.34 31.25L364.56 25.63L382.99 14.41L401.58 3.35L407.18 0H406.84Z" fill="white"/>
</g>
<g id="Vector_34" style="mix-blend-mode:color-burn">
<path d="M348 40.6L383.07 61.09L400.7 71.2L409.52 76.2L413.93 78.72C414.747 79.138 415.498 79.6737 416.16 80.31C416.875 81.0443 417.341 81.9857 417.49 83C417.96 96.78 418.16 110.14 418.49 123.73L418.76 144.04L418.9 154.19L418.97 159.27V161.81C418.97 162.67 418.76 163.66 418.65 164.58L418.37 166.89L416.27 165.8C414.71 165 413.09 164.25 411.59 163.39L407.16 160.73L398.3 155.42L380.63 144.8L363 134.07L354.19 128.68L349.79 125.99C348.4 125.11 346.59 124.22 345.53 122.44C344.47 120.66 344.6 118.58 344.61 116.96V111.8L344.69 101.47L344.83 80.81C344.88 67.04 344.6 53.27 344.9 39.5C345.962 39.7788 346.999 40.1468 348 40.6V40.6ZM348 40.6C347.002 40.154 345.968 39.7927 344.91 39.52C344.77 53.28 345.2 67.06 345.33 80.83L345.81 101.48L346.05 111.81L346.16 116.97C346.16 118.74 346.16 120.33 346.97 121.53C347.78 122.73 349.17 123.47 350.7 124.34L355.19 126.91L364.19 132.03L382.1 142.33L400 152.72L408.92 157.93L413.38 160.53L417.87 162.87L415.49 164.09C415.632 163.343 415.736 162.588 415.8 161.83V154.22V144.06L415.75 123.75L415.98 83.26C415.83 81.81 414.74 80.86 413.26 80.03L408.93 77.37L400.27 72.07L382.85 61.5L348 40.6Z" fill="white"/>
</g>
<g id="Vector_35" style="mix-blend-mode:color-burn">
<path d="M270.37 159.17L270.56 119.03L270.51 99L270.46 89C270.395 87.289 270.439 85.5756 270.59 83.87C270.85 82.0139 271.818 80.3301 273.29 79.17C284.79 71.89 296.16 65.17 307.61 58.17L342.1 37.51L344.38 36.15L344.55 38.81C344.66 40.58 344.83 42.37 344.89 44.12L344.81 49.31L344.64 59.68L344.29 80.42L343.84 101.16L343.57 111.54L343.44 116.72C343.38 118.38 343.44 120.39 342.44 122.22C341.44 124.05 339.51 124.93 338.11 125.75L333.6 128.31L324.6 133.43L306.55 143.67L288.6 154.07L279.6 159.27C276.665 161.097 273.619 162.741 270.48 164.19V164.19L270.37 159.17ZM270.37 159.17L270.51 164.17C273.629 162.689 276.654 161.019 279.57 159.17L288.48 153.86L306.3 143.22L324 132.39L332.86 127L337.29 124.3C338.81 123.38 340.29 122.64 340.86 121.3C341.43 119.96 341.47 118.42 341.46 116.66V111.48V101.1V80.39L341.56 59.64V49.27V44.08C341.56 42.38 341.37 40.72 341.29 39.08L343.73 40.38L309 60.45C297.44 67.08 285.59 73.66 274.27 80.33C273.055 81.2241 272.239 82.5602 272 84.05C271.817 85.6734 271.734 87.3065 271.75 88.94L271.49 98.94L271 119L270.37 159.17Z" fill="white"/>
</g>
<g id="Vector_36" style="mix-blend-mode:color-burn">
<path d="M341.66 0C341.8 11.12 341.91 22.24 342.16 33.37L341.65 33.12C340.88 32.76 340.12 32.39 339.35 31.99L334.76 29.59L325.63 24.59L307.49 14.45L289.4 4.16L282.29 0H281.21C283.77 1.66 286.35 3.29 288.94 4.92L306.66 15.92L324.59 26.52L333.59 31.7L338.17 34.22C338.93 34.65 339.72 35.05 340.51 35.44L341.72 36.05L343.19 36.62L344.72 37.21V35.29C344.79 23.53 344.72 11.76 344.61 0H341.66Z" fill="white"/>
</g>
<g id="Vector_37" style="mix-blend-mode:color-burn">
<path d="M325.54 27.41L308.34 18L276.22 0H276.16L308.11 18.34L325.11 28.23C330.36 31.4 335.8 34.33 340.89 37.68C339.79 38.4 338.71 39.14 337.56 39.81L333 42.28L323.87 47.28L305.62 57.18L287.42 67.2L278.34 72.2L273.8 74.72C272.24 75.61 270.98 76.28 269.8 76.23C268.62 76.18 267.44 75.45 265.8 74.54L261.3 72L252.23 67L234.1 56.84L215.92 46.84L206.8 41.84C204.183 40.4745 201.64 38.9724 199.18 37.34L235.56 16.08L254.49 5.26L263.69 0H263.42L254.37 5L235.31 15.63L197 36.51L195.82 37.15L196.92 38.03C199.72 40.12 202.668 42.0049 205.74 43.67L214.74 48.93L232.69 59.37L250.69 69.71L259.69 74.88L264.19 77.47C265.58 78.2 267.36 79.53 269.76 79.54C272.16 79.55 273.98 78.35 275.39 77.54L279.89 75L288.89 69.86L306.89 59.57L324.9 49.11L333.9 43.88L338.39 41.27C339.86 40.35 341.29 39.27 342.74 38.27L343.74 37.62L342.74 36.99C337.1 33.51 331.26 30.63 325.54 27.41Z" fill="white"/>
</g>
<g id="Vector_38" style="mix-blend-mode:color-burn">
<path d="M257.9 0L252.77 3L234.09 13.83L215.31 24.53L205.92 29.87C203.15 31.43 200.4 33.04 197.57 34.42L197.39 33.1C197.334 32.2809 197.334 31.4591 197.39 30.64L197.52 25.46L197.79 15.1L198.12 0H195.36V15.07L195.41 25.43V30.61C195.379 31.5181 195.416 32.4273 195.52 33.33L195.95 35.88L196.15 37.1L197.23 36.56C200.52 34.93 203.52 32.98 206.61 31.12L215.84 25.5L234.3 14.27L252.9 3.2L258.26 0H257.9Z" fill="white"/>
</g>
<g id="Vector_39" style="mix-blend-mode:color-burn">
<path d="M268.09 81.31C268.95 108.39 269.61 135.92 270.09 163.54V165.35L268.57 164.8L267.06 164.26L265.84 163.69C265.04 163.31 264.24 162.93 263.48 162.53L258.85 160.11C255.78 158.49 252.76 156.78 249.74 155.11L231.69 144.81L213.77 134.27C207.77 130.68 201.9 127.2 196.04 123.19L195.36 122.73V121.86L195.12 80.34C195.12 66.5 194.9 52.66 194.98 38.82V36.5L197 37.68L232.8 59.47L268.09 81.31ZM268.09 81.31L231.63 60.63L195.68 39.9L197.63 38.78C197.95 52.61 198.03 66.45 198.23 80.29L198.75 121.81L198.07 120.48C203.61 124.33 209.61 127.93 215.48 131.48L233.28 142.13L251.22 152.54L260.22 157.63L264.74 160.12C265.5 160.54 266.25 160.92 267.01 161.3L268.13 161.86L269.04 162.25L267.56 163.51C267.59 136.36 267.75 109.06 268.09 81.31Z" fill="white"/>
</g>
<g id="Vector_40" style="mix-blend-mode:color-burn">
<path d="M193.07 0C193.22 11.34 193.33 22.68 193.58 34L159.58 14.41L134.17 0H133.25L158.43 15.58L194.25 37.37L196.17 38.54V36.25C196.24 24.17 196.12 12.08 196.06 0H193.07Z" fill="white"/>
</g>
<g id="Vector_41" style="mix-blend-mode:color-burn">
<path d="M488.6 462.34L453.92 443L436.52 433.44L427.81 428.68C424.84 427.164 421.961 425.475 419.19 423.62L418.28 422.96L419.2 422.34C420.64 421.34 422.05 420.27 423.54 419.39L428.02 416.78L437.02 411.57L454.95 401.14L472.95 390.87L481.95 385.73L486.46 383.17C487.86 382.41 489.63 381.17 492.03 381.1C493.152 381.11 494.257 381.377 495.26 381.88C496.21 382.37 496.82 382.75 497.61 383.2L502.11 385.78L511.11 390.94L529.11 401.26L547 411.68L555.95 416.92C559.005 418.601 561.96 420.458 564.8 422.48L565.92 423.33L564.73 423.98L526.81 444.6L508 455.05L498.57 460.28C496.98 461.12 495.46 462.1 493.81 462.82C492.97 463.179 492.054 463.323 491.144 463.239C490.235 463.155 489.36 462.846 488.6 462.34V462.34ZM488.6 462.34C489.358 462.827 490.224 463.12 491.123 463.194C492.021 463.267 492.923 463.118 493.75 462.76C495.38 462.03 496.89 461.03 498.46 460.17L507.83 454.83L526.57 444.16L545.21 433.32L563.82 422.44L563.75 423.94C560.902 422.033 557.944 420.296 554.89 418.74L545.79 413.74L527.63 403.74L509.52 393.63L500.52 388.57L495.99 386.04L493.82 384.82C493.28 384.532 492.682 384.371 492.07 384.35C490.93 384.35 489.65 385.05 488.07 385.94L483.54 388.46L474.47 393.46L456.34 403.51L438.11 413.4L428.99 418.34L424.44 420.81C422.93 421.65 421.57 422.65 420.13 423.57V422.29C422.809 424.194 425.597 425.94 428.48 427.52L437.05 432.52L454.2 442.52L488.6 462.34Z" fill="white"/>
</g>
<g id="Vector_42" style="mix-blend-mode:color-burn">
<path d="M636.09 548.35L601.17 527.94L583.63 517.86L574.85 512.86L570.47 510.35C569.08 509.63 567.14 508.44 566.69 506.35C566.474 504.615 566.38 502.868 566.41 501.12L566.29 496.06L566.06 486L565.59 465.78L565.31 445.55L565.17 435.43L565.1 430.38C564.995 428.626 565.042 426.866 565.24 425.12L565.56 423.24L567.1 423.71C567.66 423.88 568.21 424.07 568.76 424.28L569.97 424.85C570.78 425.23 571.57 425.62 572.33 426.04L576.92 428.53L585.99 433.63L603.93 444.1C609.93 447.61 615.79 451.25 621.66 454.92C627.53 458.59 633.38 462.28 639.09 466.3L639.47 466.56V467L639.22 508.28L639.36 549.56C638.241 549.239 637.148 548.834 636.09 548.35V548.35ZM636.09 548.35C637.143 548.817 638.229 549.204 639.34 549.51V549.51L638.71 508.23L637.71 466.96L638.09 467.68C632.36 463.91 626.38 460.41 620.43 456.91L602.49 446.53L584.49 436.3L575.42 431.3L570.86 428.9L568.59 427.76L567.46 427.21C567.193 427.114 566.932 427 566.68 426.87L568.55 425.47C568.357 427.072 568.3 428.688 568.38 430.3V435.35V445.46V465.68L568.24 485.9L568.17 496.01V501.07C568.107 502.69 568.137 504.313 568.26 505.93C568.51 507.32 569.73 508.19 571.26 509.04L575.57 511.68L584.19 516.96L601.46 527.5L636.09 548.35Z" fill="white"/>
</g>
<g id="Vector_43" style="mix-blend-mode:color-burn">
<path d="M635.38 461.34L601.51 442.34L567.51 423.6L566.51 423.03L567.51 422.35C568.874 421.23 570.303 420.191 571.79 419.24L576.28 416.63L585.28 411.39L603.12 401L621.12 390.68L630.12 385.53L634.63 382.96C636.312 381.822 638.28 381.18 640.31 381.11C642.341 381.223 644.305 381.876 646 383L650.51 385.58L659.51 390.75L677.51 401.1L695.51 411.54L704.51 416.79L708.99 419.42L713.38 422.29L714.65 423.12L713.34 423.85C700.42 431 687.47 437.94 674.6 445L655.35 455.69L645.73 461C644.192 462.027 642.429 462.669 640.59 462.87C638.741 462.878 636.931 462.347 635.38 461.34V461.34ZM635.38 461.34C636.937 462.328 638.746 462.845 640.59 462.83C642.41 462.606 644.148 461.947 645.66 460.91L655.22 455.45L674.34 444.53C687 437.12 699.75 429.82 712.34 422.27V423.83C700.56 416.77 688.1 410.5 676.11 403.63L657.92 393.5L648.85 388.43L644.32 385.89C643.141 385.038 641.764 384.501 640.32 384.33C638.886 384.42 637.504 384.897 636.32 385.71L631.79 388.23L622.71 393.23L604.54 403.3L586.29 413.22L577.17 418.22L572.61 420.7C571.152 421.57 569.75 422.528 568.41 423.57L568.34 422.32L585 432.2L601.74 442L635.38 461.34Z" fill="white"/>
</g>
<g id="Vector_44" style="mix-blend-mode:color-burn">
<path d="M640.84 544.79L641.02 504.59L641 484.5V474.45C640.925 472.736 640.969 471.018 641.13 469.31C641.4 467.456 642.356 465.772 643.81 464.59C655.31 457.24 666.72 450.59 678.18 443.51L695.44 433.22L704.07 428.08L708.39 425.51L712.94 423.14L715.23 421.95L715.31 424.56L715.47 429.81L715.39 434.99L715.22 445.36L714.88 466.09L714.43 486.82L714.17 497.19L714.03 502.37C714.141 504.268 713.74 506.16 712.87 507.85C711.817 509.425 710.345 510.675 708.62 511.46L704 514L695 519.13L677 529.39L641.11 550.18V550.12L640.84 544.79ZM640.84 544.79L641.13 550.18L676.75 528.94L694.46 518.14L703.32 512.74L707.75 510.04C709.178 509.36 710.389 508.297 711.25 506.97C711.9 505.536 712.162 503.957 712.01 502.39V497.21L711.96 486.83V466.06C711.96 452.26 712.21 438.35 712.04 424.64L714.41 426.06L710.02 428.27L705.68 430.79L696.98 435.79L679.59 445.86C668.02 452.5 656.09 459.05 644.82 465.76C643.607 466.671 642.79 468.014 642.54 469.51C642.349 471.133 642.263 472.766 642.28 474.4L642 484.5L641.54 504.6L640.84 544.79Z" fill="white"/>
</g>
<g id="Vector_45" style="mix-blend-mode:color-burn">
<path d="M732.73 581.36L729.9 582.9L721 587.74C718 589.15 715.08 591.74 712.32 590.44C700.81 583.85 689.06 576.85 677.45 570.07L659.9 560L651.12 555C648.98 553.76 646.8 552.56 644.78 551.25L678.48 532L696.41 521.65L705.41 516.44L709.88 513.84C711.4 512.97 712.79 512.03 714.2 511.94C715.61 511.85 716.96 512.66 718.52 513.51L723 516L732.09 521L732.72 521.34V520H732.67L723.74 514.76L719.27 512.15C717.87 511.35 716.19 510.08 714.04 510.21C711.89 510.34 710.35 511.45 708.87 512.21L704.32 514.68L695.22 519.62L677.05 529.55C664.99 536.28 652.86 542.82 640.86 549.72L638.67 550.98L640.76 552.5C643.581 554.436 646.516 556.199 649.55 557.78L658.38 562.72L676.06 572.59C687.96 579.06 699.61 585.59 711.73 592.01C712.625 592.343 713.583 592.47 714.533 592.382C715.484 592.294 716.402 591.992 717.22 591.5L721.63 588.95L730.38 583.85L732.72 582.49L732.73 581.36Z" fill="white"/>
</g>
<g id="Vector_46" style="mix-blend-mode:color-burn">
<path d="M732.73 516.38L717.27 506.9C717.34 493.28 717.18 479.66 717.13 466.05L716.92 427.27L718.98 428.35L723.46 430.96L732.41 436.2L732.73 436.39V432.68L725.13 428.15L720.67 425.51L716 423L713.52 421.69V424.49L714.05 466.04C714.25 479.89 714.34 493.74 714.67 507.58V508.32L715.28 508.67L732.66 518.62L732.73 516.38Z" fill="white"/>
</g>
<g id="Vector_47" style="mix-blend-mode:color-burn">
<path d="M732.73 431.86C727.81 428.93 722.73 426.15 718.02 423.05C718.42 422.69 718.8 422.34 719.18 422.05C719.71 421.66 720.61 421.24 721.33 420.83L725.89 418.35L732.73 414.63V412.23L725 416.76L720.51 419.37C719.75 419.85 719.06 420.15 718.2 420.79C717.34 421.43 716.89 422.03 716.26 422.56L715.46 423.25L716.34 423.79C721.71 427.15 727.27 429.93 732.74 432.98L732.73 431.86Z" fill="white"/>
</g>
</g>
<g id="Group_4" style="mix-blend-mode:color-burn">
<g id="Vector_48" style="mix-blend-mode:color-burn">
<path d="M732.73 295.47L722.65 289.83L696.24 275.07C679.24 265.43 661.8 256.48 645.07 246.65C648.794 244.017 652.663 241.596 656.66 239.4L670.32 231.4L697.66 215.46L725.13 199.77L732.73 195.43V195.12L725 199.47L697.34 214.85L669.51 230L655.61 237.56C650.98 240.09 646.28 242.41 641.94 245.77L640.49 246.89L642.01 247.89C646.25 250.76 650.58 253.36 654.95 255.89L667.95 263.55L694.09 278.77L720.32 293.84L732.68 300.94L732.73 295.47Z" fill="white"/>
</g>
<g id="Vector_49" style="mix-blend-mode:color-burn">
<path d="M535.91 438.37L587.28 468.37L613.08 483.19L626 490.58L632.45 494.27C633.633 494.878 634.737 495.627 635.74 496.5C636.825 497.512 637.569 498.837 637.87 500.29C638.68 520.56 638.87 540.07 639.4 559.99L639.81 589.73L640.01 604.6L640.11 612.04V615.76C640.03 617.129 639.866 618.491 639.62 619.84L639.19 623.18L636.14 621.6C633.87 620.43 631.52 619.3 629.32 618.04L622.86 614.16L610 606.41L584.1 590.9L558.34 575.22L545.47 567.34L539 563.4C537 562.12 534.34 560.85 532.77 558.25C531.2 555.65 531.41 552.62 531.41 550.25L531.47 542.71L531.57 527.63L531.78 497.47C531.85 477.36 531.43 457.25 531.91 437.15C533.284 437.409 534.625 437.818 535.91 438.37V438.37ZM535.91 438.37C534.639 437.836 533.315 437.437 531.96 437.18C531.71 457.28 532.37 477.39 532.54 497.49L533.23 527.65L533.58 542.73L533.75 550.27C533.8 552.86 533.75 555.16 534.94 556.91C536.13 558.66 538.19 559.73 540.41 561.01L546.96 564.76L560.06 572.24L586.2 587.24L612.2 602.45L625.2 610.05L631.72 613.86L638.26 617.28L634.79 619.05C635.013 617.967 635.173 616.872 635.27 615.77V612.05V604.62V589.74L635.26 560C635.32 540.27 635.66 520.09 635.54 500.74C635.24 498.65 633.54 497.34 631.35 496.1L625 492.24L612.31 484.47L586.93 469L535.91 438.37Z" fill="white"/>
</g>
<g id="Vector_50" style="mix-blend-mode:color-burn">
<path d="M532 424.58L532.28 365.92L532.22 336.59L532.15 321.92C532.064 319.425 532.121 316.928 532.32 314.44C532.643 311.704 534.008 309.197 536.13 307.44C553 296.81 569.62 287 586.35 276.75L611.54 261.75L624.14 254.25L630.44 250.49L637.07 247.03L640.35 245.32L640.54 249.05L640.92 256.75L640.81 264.32L640.56 279.46L640.06 309.74L639.41 340L639 355.13L638.81 362.7C638.81 365.19 638.62 368.17 637.09 370.7C635.56 373.23 633.02 374.77 630.87 375.95L624.29 379.69L611.14 387.19L584.82 402.19L532.4 432.54H532.34V432.47L532 424.58ZM532 424.58L532.42 432.49H532.35L584.35 401.49L610.21 385.71L623.14 377.83L629.61 373.88C631.8 372.6 633.71 371.33 634.74 369.41C635.77 367.49 635.93 365.24 635.87 362.74V355.16L635.82 340V309.71L635.96 279.42L636.03 264.28V256.71L635.74 249.29L639.2 251.29L632.79 254.54L626.44 258.21L613.76 265.57L588.37 280.27C571.48 289.95 554.1 299.54 537.6 309.27C535.849 310.612 534.693 312.586 534.38 314.77C534.133 317.149 534.016 319.539 534.03 321.93L533.65 336.59L533 365.92L532 424.58Z" fill="white"/>
</g>
<g id="Vector_51" style="mix-blend-mode:color-burn">
<path d="M558.4 447.74L546 440.48L539.81 436.85L535.48 433.85L587 405.79L613.45 391.13L626.67 383.8L633.28 380.13C635.6 378.81 637.36 377.83 639.15 377.84C640.94 377.85 642.63 378.73 644.92 380.08L651.52 383.76L664.72 391.14L691.12 405.89L717.6 420.49L730.87 427.74L732.7 428.74V425.23L732.4 425.05L719.4 417.41L693.25 402.2L667 387.14L653.89 379.62L647.33 375.85C645.33 374.7 642.43 372.93 639.07 373.04C635.71 373.15 632.97 374.91 630.96 376.04L624.4 379.78L611.26 387.27L585.01 402.27L532.77 432.77L531.19 433.69L532.7 434.69L538.8 438.63L545.09 442.07L557.69 448.96L582.83 462.81L632.94 490.81L583.16 462.21L558.4 447.74Z" fill="white"/>
</g>
<g id="Vector_52" style="mix-blend-mode:color-burn">
<path d="M732.73 440.09C731.94 440.55 731.17 441.02 730.38 441.47L716.63 449.47L689.15 465.47L661.52 481.26L647.71 489.15C645.4 490.42 643.18 492.01 640.55 492.46C637.916 492.82 635.24 492.232 633 490.8C635.235 492.283 637.926 492.922 640.59 492.6C643.26 492.18 645.51 490.6 647.83 489.37L661.74 481.64L689.55 466.17L717.46 451L731.46 443.39L732.75 442.69L732.73 440.09Z" fill="white"/>
</g>
<g id="Vector_53" style="mix-blend-mode:color-burn">
<path d="M644.31 496.6C646.45 495.12 648.8 493.93 651.04 492.6L664.62 484.71L691.78 468.92L719.08 453.37L732.73 445.6V443.14L731.67 443.78L718.25 451.96L691.41 468.29L664.41 484.39L650.92 492.45C648.7 493.83 646.38 495.04 644.23 496.56C643.193 497.39 642.377 498.463 641.854 499.684C641.33 500.905 641.116 502.237 641.23 503.56C641.125 502.235 641.352 500.905 641.889 499.69C642.427 498.475 643.259 497.413 644.31 496.6Z" fill="white"/>
</g>
<g id="Vector_54" style="mix-blend-mode:color-burn">
<path d="M732.73 562.84L730.68 564.05L717.68 571.8L691.68 587.29L665.86 603L652.94 610.86L646.48 614.79L643.25 616.79C642.81 617.087 642.349 617.351 641.87 617.58L641.42 617.71C641.07 613.46 641.13 609.1 641.1 604.71L641 590.28V561.34L641.28 503.48L640.28 561.34L639.6 590.26L639.23 604.73C639.12 609.55 638.86 614.34 639.23 619.27L639.33 620.65L640.71 620.3L642.54 619.83C643.239 619.566 643.91 619.231 644.54 618.83L647.82 616.96L654.4 613.22L667.55 605.75L693.85 590.81L720 575.65L732.78 568.24L732.73 562.84Z" fill="white"/>
</g>
<g id="Vector_55" style="mix-blend-mode:color-burn">
<path d="M732.73 422.27L695.07 400.55L641.81 370.32L693.36 402.23L732.73 426.2V422.27Z" fill="white"/>
</g>
<g id="Vector_56" style="mix-blend-mode:color-burn">
<path d="M643.34 253.38L646.64 255.12L653.25 258.77L666.43 266.23L692.64 281.46L718.64 297.01C723.32 299.88 728.05 302.75 732.71 305.68V300.08C728.83 297.71 724.94 295.39 721.03 293.03L694.85 277.64L668.5 262.57C664.08 260.1 659.68 257.57 655.19 255.23L648.44 251.69L645 250L643.22 249.16L641.05 248.36L638.79 247.52L638.84 250.2C639.59 290.56 640.56 330.78 641.84 370.35C642.33 330.78 642.56 291.83 642.58 253.02L643.34 253.38Z" fill="white"/>
</g>
<g id="Vector_57" style="mix-blend-mode:color-burn">
<path d="M642.42 150.14L642.8 135.3L642.98 127.88C642.942 126.795 643.147 125.715 643.582 124.72C644.016 123.725 644.668 122.84 645.49 122.13C647.427 120.725 649.47 119.471 651.6 118.38L658.05 114.72L671 107.4L696.8 92.7699C708.8 85.8633 720.777 78.9499 732.73 72.0299V66.6899C720.03 74.1699 707.363 81.6766 694.73 89.2099L669.35 104.61L656.66 112.3L650.32 116.15C648.078 117.382 645.94 118.797 643.93 120.38C642.904 121.327 642.098 122.487 641.569 123.78C641.04 125.072 640.802 126.465 640.87 127.86V135.29L640.94 150.13L641.02 179.81L640.74 239.18L641.74 179.82L642.42 150.14Z" fill="white"/>
</g>
<g id="Vector_58" style="mix-blend-mode:color-burn">
<path d="M732.73 189.49L732.42 189.68L719.51 197.54L693.67 213.27L667.67 228.77L654.67 236.52C650.34 239.08 646.09 241.76 641.56 243.95C641.149 242.385 640.862 240.79 640.7 239.18C640.85 240.804 641.121 242.416 641.51 244V244C646.08 241.86 650.38 239.22 654.75 236.7L667.83 229.1L693.98 213.92L720.36 199L732.73 192V189.49Z" fill="white"/>
</g>
<g id="Vector_59" style="mix-blend-mode:color-burn">
<path d="M732.73 48.08L695.54 25.26L669.69 9.58L656.76 1.74L653.89 0H647C647.53 0.32 648 0.63 648.55 0.9L655.1 4.67L668.19 12.22L694.39 27.3C707.22 34.48 719.93 41.89 732.78 49.05L732.73 48.08Z" fill="white"/>
</g>
<g id="Vector_60" style="mix-blend-mode:color-burn">
<path d="M720.21 45.14L732.73 52.48V50.37L720.91 43.91L695.41 29.89L644.6 1.52002L695.07 30.48L720.21 45.14Z" fill="white"/>
</g>
<g id="Vector_61" style="mix-blend-mode:color-burn">
<path d="M732.73 65.38L732.01 65.77L718.74 73L692.2 87.39L665.79 102.05L652.58 109.37L646 113C643.7 114.29 641.86 115.39 640.13 115.4C638.4 115.41 636.78 114.53 634.42 113.19L627.83 109.51L614.65 102.14L588.26 87.46C571.26 77.84 553.79 68.88 537.11 59.07L538.65 57.83C539.678 57.0979 540.75 56.4299 541.86 55.83L548.64 51.83L562.21 44L589.35 28.2L616.63 12.65L630.27 4.87001C632.55 3.61001 634.78 2.21001 637.12 1.06001C638.302 0.491434 639.61 0.235194 640.92 0.31572C642.229 0.396245 643.496 0.810852 644.6 1.52001C643.494 0.801411 642.223 0.376563 640.907 0.285578C639.592 0.194593 638.274 0.440476 637.08 1.00001C634.71 2.14001 632.48 3.50001 630.18 4.74001L616.45 12.36L589 27.56L561.41 42.56L547.6 50L540.7 53.75C539.485 54.3598 538.31 55.0444 537.18 55.8L534.05 58.18L532.66 59.23L534.11 60.29C538.31 63.34 542.72 65.67 547.04 68.29L560.04 75.93L586.14 91.12L612.33 106.12L625.42 113.63L631.97 117.39C633.91 118.52 636.84 120.39 640.26 120.2C643.68 120.01 646.26 118.2 648.26 117.1L654.82 113.36L668 105.93L694.23 90.93L720.32 75.73L732.75 68.5L732.73 65.38Z" fill="white"/>
</g>
<g id="Vector_62" style="mix-blend-mode:color-burn">
<path d="M629.46 0C629.2 0.15 628.93 0.3 628.67 0.47L615.05 8.37L587.8 24.19L560.41 39.77L546.71 47.56C542.63 49.8 538.6 52.3 534.47 54.27C534.318 53.6105 534.205 52.9427 534.13 52.27C534.03 51.33 534.13 49.88 534.13 48.67L534.32 41.12L534.74 26L535.35 0H531.23V26L531.29 41.12V48.68C531.29 49.99 531.22 51.07 531.39 52.63C531.56 54.19 531.96 55.23 532.18 56.4L532.48 58.07L534.01 57.34C538.9 55 543.18 52.06 547.72 49.39L561.18 41.2L588.11 24.83L615.23 8.69L628.77 0.62C629.1 0.41 629.45 0.21 629.77 0H629.46Z" fill="white"/>
</g>
<g id="Vector_63" style="mix-blend-mode:color-burn">
<path d="M539.28 64.76L589.62 94.17L614.9 108.7L627.55 115.93L633.91 119.58C635.118 120.232 636.165 121.147 636.975 122.256C637.785 123.365 638.336 124.64 638.59 125.99C639.35 145.78 639.59 164.99 640.1 184.45C640.34 203.94 640.85 223.19 640.76 242.86V244.07L639.76 244.73L638.69 245.41L638.56 245.5H638.49C638.188 245.629 637.872 245.726 637.55 245.79C637.262 245.838 636.968 245.838 636.68 245.79C636.437 245.757 636.201 245.686 635.98 245.58H635.89L635.66 245.47L634.77 245.05L633 244.2C631.858 243.642 630.747 243.024 629.67 242.35L623.21 238.48L610.3 230.73L584.5 215.22C567.27 204.93 550.24 194.29 533.1 183.84L532.44 183.44V182.7L532.81 122.05L532.64 61.41V61.33H532.71L539.28 64.76ZM539.28 64.76L532.65 61.42H532.71L533.65 122.06L535.11 182.69L534.45 181.55C551.84 191.55 569.35 201.4 586.64 211.55L612.64 226.75L625.64 234.35L632.13 238.16C633.175 238.824 634.253 239.435 635.36 239.99L636.97 240.78L637.78 241.17L637.98 241.27C637.98 241.27 638.05 241.27 637.98 241.27C637.796 241.184 637.6 241.124 637.4 241.09C637.188 241.056 636.972 241.056 636.76 241.09C636.36 241.17 636.47 241.18 636.7 241.09L636.5 241.18L637.03 240.83L636.03 242.69C636.36 223.5 636.03 203.89 636.09 184.5C636.15 165.11 636.47 145.43 636.36 126.39C635.99 121.99 630.52 120.28 626.64 117.56L614.2 109.95L589.28 94.76L539.28 64.76Z" fill="white"/>
</g>
<g id="Vector_64" style="mix-blend-mode:color-burn">
<path d="M536.9 189.64L587.29 217.79L612.58 231.7L625.24 238.62L631.57 242.08L637.74 245.93L639.31 246.93L637.69 247.93L585.4 278.4L559.11 293.4L546 300.9L539.42 304.64C537.32 305.78 534.88 307.54 531.42 307.78C527.96 308.02 525.06 306.01 523.11 304.93L516.55 301.16L503.42 293.63L477.18 278.55L451 263.32L438 255.66C433.67 253.05 429.24 250.75 425.05 247.66L423.65 246.66L424.99 245.57C429.3 242.08 434.04 239.83 438.69 237.27L452.64 229.68L480.54 214.49L508.25 199L522.14 191.29C524.47 190.08 526.68 188.46 529.32 187.95C531.96 187.44 534.65 188.32 536.9 189.64ZM536.9 189.64C534.63 188.34 531.96 187.41 529.34 188.01C526.72 188.61 524.55 190.18 522.23 191.42L508.44 199.3L480.86 215.05L453.42 231.05L439.7 239.05C435.15 241.74 430.37 244.23 426.54 247.58L426.48 245.45C430.48 248.27 435.08 250.51 439.48 252.98L452.76 260.24L479.27 274.86L505.7 289.63L518.89 297L525.5 300.69C527.86 302.03 529.5 303.12 531.16 302.97C532.82 302.82 534.82 301.79 537.08 300.52L543.7 296.85L556.93 289.51L583.41 274.84L636.57 245.84L636.52 247.77L630.52 243.77L624.3 240.12L611.85 232.82L587 218.38L536.9 189.64Z" fill="white"/>
</g>
<g id="Vector_65" style="mix-blend-mode:color-burn">
<path d="M424.21 503.76C424.21 501.17 424.74 498.32 426.83 496.56C428.973 495.029 431.204 493.623 433.51 492.35L447.07 484.25L474.2 468.06L501.2 451.63L514.69 443.41C519.23 440.72 523.55 437.8 528.43 435.41L530.15 434.58L530.29 436.47C530.48 439.02 530.86 441.61 530.88 444.13V451.7L530.94 466.83V497.09L530.79 527.35L530.71 542.48V550.04C530.66 552.37 530.96 555.53 529.24 558.6C528.399 560.007 527.242 561.199 525.86 562.08L522.48 564.08L515.93 567.88L502.85 575.47L476.67 590.65L450.36 605.65L437.2 613.12C432.76 615.55 428.6 618.29 423.78 620.3L422.23 620.96L422.15 619.33C421.92 614.45 422.01 609.64 422.15 604.83L422.52 590.4L423.2 561.53L424.21 503.76ZM424.21 503.76L423.92 561.51L423.98 590.39L424.04 604.82C424.04 609.64 424.04 614.46 424.44 619.19L422.81 618.19C427.27 616.19 431.5 613.19 435.81 610.71L448.74 602.84L474.59 587.11L500.59 571.62L513.59 563.87L520.1 560L523.22 558.12C523.972 557.638 524.604 556.992 525.07 556.23C525.89 554.81 525.85 552.65 525.88 550.01L526.01 542.45L526.27 527.32L526.77 497.06L527.47 466.81L527.86 451.68L528.06 444.12C528.12 441.6 527.81 439.17 527.7 436.69L529.57 437.74C524.88 439.82 520.35 442.66 515.76 445.21L502 453.05L474.54 468.69L447.23 484.57L433.57 492.51C431.257 493.755 429.017 495.13 426.86 496.63C424.8 498.35 424.19 501.17 424.21 503.76Z" fill="white"/>
</g>
<g id="Vector_66" style="mix-blend-mode:color-burn">
<path d="M529.42 431.82C524.809 429.753 520.325 427.416 515.99 424.82L502.83 417.35L476.52 402.42L450.32 387.31L437.22 379.75L430.67 376C428.67 374.78 425.84 373.59 424.13 370.74C422.42 367.89 422.76 364.74 422.66 362.43L422.51 354.87L422.32 339.75L422 309.52L421.64 279.28L421.46 264.16C421.268 259.056 421.345 253.946 421.69 248.85L422.01 245.46L425.15 246.82C430.07 248.95 434.2 251.69 438.56 254.25L451.56 262L477.56 277.51L503.56 293.01L516.56 300.77L523.02 304.7C525.02 305.97 527.81 307.21 529.48 310.09C531.15 312.97 530.73 316.09 530.79 318.41V325.97V341.09L530.7 371.34L530.4 401.58L530.25 416.71C530.234 421.758 529.957 426.801 529.42 431.82V431.82ZM529.42 431.82C529.65 426.785 529.62 421.742 529.33 416.71L528.92 401.59L528.12 371.35L527.52 341.11L527.22 325.99L527.08 318.43C527.02 315.8 527.08 313.53 526.08 311.99C525.08 310.45 523.08 309.39 520.86 308.07L514.32 304.29L501.27 296.64L475.19 281.33L449.15 266L436.15 258.34C431.8 255.82 427.46 253.05 423.08 251.21L426.55 249.21C426.172 254.17 426.062 259.148 426.22 264.12L426.29 279.24L426.42 309.49L426.56 339.74L426.62 354.87V362.43C426.62 365.06 426.46 367.29 427.41 368.88C428.36 370.47 430.31 371.59 432.54 372.95L439 376.87L451.93 384.72L477.79 400.42L503.54 416.29L516.42 424.29C520.604 427.05 524.944 429.564 529.42 431.82V431.82Z" fill="white"/>
</g>
<g id="Vector_67" style="mix-blend-mode:color-burn">
<path d="M424 237.58L424.28 178.76L424.21 149.34L424.15 134.64C424.15 132.15 424.05 129.83 424.2 127.19C424.26 125.809 424.621 124.458 425.258 123.231C425.896 122.005 426.794 120.932 427.89 120.09L478.19 89.33L503.44 74.25L516.07 66.71C520.275 64.0726 524.614 61.656 529.07 59.47L532.38 57.9L532.54 61.51L532.88 69.19L532.76 76.74L532.51 91.86L532 122.08L531.34 152.3L531 167.41L530.81 174.97C530.81 177.46 530.6 180.45 529.04 182.97C527.48 185.49 524.95 186.97 522.81 188.16L516.24 191.89L503.1 199.37L476.82 214.31L424.47 244.6H424.41V244.53L424 237.58ZM424 237.58L424.46 244.58H424.4L476.33 213.58L502.16 197.85L515.1 190L521.55 186.07C523.74 184.79 525.67 183.52 526.73 181.62C527.79 179.72 527.96 177.49 527.89 174.98V167.42L527.82 152.31V122.07L527.96 91.84L528 76.69V69.13L527.75 61.71L531.21 63.71C526.832 65.7986 522.566 68.1151 518.43 70.65L505.72 78.04L480.29 92.85L429.29 121.94C425.38 124.38 426.29 129.83 426.04 134.65L425.66 149.36L424.97 178.76L424 237.58Z" fill="white"/>
</g>
<g id="Vector_68" style="mix-blend-mode:color-burn">
<path d="M527.82 0C528.07 18 528.22 35.91 528.61 53.87L479 25.25L434.47 0H433.74L477.29 26.94L529.59 58.77L532.41 60.49V57.13C532.52 38.13 532.3 19.05 532.22 0L527.82 0Z" fill="white"/>
</g>
<g id="Vector_69" style="mix-blend-mode:color-burn">
<path d="M427.6 1.26002L478.24 29.56L503.66 43.56L516.38 50.56C520.59 52.99 524.95 54.9 528.99 57.92L530.17 58.8L529 59.8C525 63.14 520.51 65.5 516.16 68.05L503.07 75.68L476.9 90.83L450.6 105.83L437.45 113.34L430.88 117.09C428.83 118.2 426.23 120.09 422.71 120.09C421.073 120.058 419.465 119.651 418.01 118.9C416.66 118.2 415.74 117.64 414.59 116.99L408 113.25L394.87 105.7L368.63 90.62L342.45 75.37L329.39 67.71C325.06 65.08 320.59 62.86 316.49 59.57L314.93 58.32L316.59 57.39C325.74 52.23 335.01 47.39 344.21 42.32L371.85 27.32L399.37 12.08L413.12 4.46002C415.44 3.23002 417.66 1.84002 420.05 0.750019C421.25 0.193767 422.571 -0.0511009 423.89 0.0380374C425.21 0.127176 426.486 0.547445 427.6 1.26002V1.26002ZM427.6 1.26002C426.486 0.561193 425.214 0.154521 423.901 0.0776135C422.589 0.000705816 421.278 0.256046 420.09 0.820019C417.73 1.93002 415.51 3.36002 413.21 4.62002L399.55 12.4L372.22 28L345 43.75C336 49.05 326.82 54.22 317.87 59.63L317.97 57.45C321.84 60.45 326.52 62.59 330.89 65.07L344.18 72.34L370.73 87L397.17 101.77L410.39 109.16L417 112.8L420.18 114.59C420.966 115.024 421.842 115.271 422.74 115.31C424.39 115.38 426.26 114.31 428.56 113.01L435.18 109.33L448.41 102L474.89 87.3L501.51 72.83L514.81 65.6C519.25 63.18 523.81 60.91 527.66 57.89V59.73C524.03 56.81 519.54 54.64 515.46 52.12L503 44.76L477.9 30.14L427.6 1.26002Z" fill="white"/>
</g>
<g id="Vector_70" style="mix-blend-mode:color-burn">
<path d="M413.38 0C412.94 0.25 412.49 0.51 412.06 0.78L398.44 8.7L371.19 24.55L343.81 40.17L330.11 48C326 50.31 321.92 52.75 317.74 54.77C317.523 54.1522 317.378 53.5112 317.31 52.86L317.39 49.19L317.58 41.62L318 26.45L318.56 0H314.43L314.48 26.41L314.55 41.55V49.12V53.02C314.777 54.3351 315.112 55.6295 315.55 56.89L315.93 58.45L317.38 57.73C322.21 55.35 326.57 52.49 331.08 49.78L344.53 41.57L371.46 25.18L398.62 9L412.15 0.94C412.66 0.61 413.15 0.3 413.7 0H413.38Z" fill="white"/>
</g>
<g id="Vector_71" style="mix-blend-mode:color-burn">
<path d="M320.39 63.44L371.62 93.36L397.34 108.14L410.22 115.5L416.66 119.18C417.855 119.792 418.954 120.578 419.92 121.51C420.949 122.566 421.626 123.914 421.86 125.37C422.55 145.49 422.86 165.01 423.33 184.86L423.74 214.53L423.94 229.36L424.04 236.77V240.48C423.956 241.837 423.803 243.189 423.58 244.53L423.17 247.9L420.1 246.32C417.82 245.14 415.46 244.05 413.26 242.79L406.79 238.91L393.85 231.16L368 215.64L342.24 200L329.37 192.13L322.94 188.19C320.94 186.91 318.27 185.61 316.72 183C315.17 180.39 315.37 177.37 315.38 175L315.43 167.46L315.53 152.37L315.74 122.2C315.81 102.09 315.41 81.97 315.85 61.86C317.405 62.2577 318.924 62.7862 320.39 63.44V63.44ZM320.39 63.44C318.932 62.7797 317.42 62.2477 315.87 61.85C315.66 81.95 316.29 102.07 316.47 122.19L317.17 152.36L317.52 167.44L317.7 174.98C317.7 177.57 317.7 179.88 318.88 181.63C320.06 183.38 322.09 184.47 324.32 185.75L330.87 189.49L344 197L370.16 212L396.23 227.21L409.23 234.82L415.74 238.62L422.3 242.03L418.83 243.81C419.036 242.722 419.186 241.624 419.28 240.52V236.81V229.39V214.56L419.22 184.89L419.54 125.75C419.32 123.64 417.73 122.24 415.54 121.02L409.21 117.15L396.56 109.41L371.26 94L320.39 63.44Z" fill="white"/>
</g>
<g id="Vector_72" style="mix-blend-mode:color-burn">
<path d="M207 236.62L207.27 178L207.2 148.69L207.1 134C207.006 131.502 207.069 129 207.29 126.51C207.681 123.788 209.115 121.324 211.29 119.64C228 109 244.64 99.2001 261.36 88.9301L311.74 58.9301L315.07 56.9301L315.32 60.8201C315.48 63.4001 315.73 66.0101 315.82 68.5701L315.7 76.1501L315.45 91.3001L314.94 121.59L314.28 151.89L313.89 167.04L313.69 174.61C313.61 177.03 313.75 179.97 312.27 182.61C310.79 185.25 307.99 186.61 305.94 187.76L299.35 191.5L286.18 199L259.82 214L233.59 229.18L220.48 236.79C216.09 239.27 211.84 242.04 207.15 243.98H207.09V243.92L207 236.62ZM207 236.62L207.21 243.93H207.15C211.8 241.93 216.01 239.12 220.38 236.59L233.38 228.83L259.38 213.3L285.27 197.55L298.27 189.68L304.75 185.74C306.97 184.39 309.05 183.31 309.96 181.42C310.87 179.53 310.85 177.21 310.83 174.64V167.06L310.77 151.91V121.6L310.92 91.2901L310.99 76.1401L311.04 68.5601C310.98 66.0701 310.77 63.6501 310.64 61.1901L314.22 63.1001L263.41 92.4301C246.53 102.12 229.21 111.73 212.68 121.43C210.901 122.733 209.705 124.683 209.35 126.86C209.092 129.231 208.975 131.615 209 134L208.63 148.66L207.94 177.96L207 236.62Z" fill="white"/>
</g>
<g id="Vector_73" style="mix-blend-mode:color-burn">
<path d="M311 0C311.25 17.62 311.4 35.25 311.79 52.87L311.04 52.52C309.93 51.98 308.81 51.45 307.69 50.86L301 47.35L287.68 40.1L261.18 25.23L234.76 10.23C229 6.81 223.16 3.47 217.42 0H216.51C222.3 3.89 228.19 7.6 234.09 11.32L259.97 27.32L286.16 42.8L299.38 50.37L306.06 54.06C307.17 54.68 308.32 55.26 309.48 55.84L311.24 56.72L313.4 57.55L315.63 58.42V55.69C315.73 37.13 315.52 18.57 315.43 0.01L311 0Z" fill="white"/>
</g>
<g id="Vector_74" style="mix-blend-mode:color-burn">
<path d="M212.36 2.36999L262.43 30.37L287.56 44.19C295.9 48.89 304.44 53.1 312.56 58.25L314 59.17L312.59 60.17C310.47 61.6 308.39 63.17 306.24 64.48L299.68 68.29L286.57 75.92L260.39 91.12L234.05 106.12L220.87 113.63L214.28 117.38C212.23 118.54 209.5 120.32 206.06 120.29C202.62 120.26 199.95 118.29 197.92 117.29L191.34 113.51L178.19 106L151.89 90.89L125.68 75.6L112.59 67.93C108.105 65.4921 103.8 62.735 99.71 59.68L98.1 58.4L99.83 57.46L155.76 27L183.59 11.53L197.51 3.78999C199.83 2.54999 202.09 0.979987 204.76 0.569987C207.426 0.253775 210.119 0.891419 212.36 2.36999V2.36999ZM212.36 2.36999C210.119 0.911127 207.434 0.291298 204.78 0.619987C202.14 1.05999 199.91 2.61999 197.6 3.90999L183.78 11.81L156.12 27.61L101.12 59.75L101.23 57.53C105.327 60.4143 109.632 62.9913 114.11 65.24L127.41 72.52L154 87.16L180.47 102L193.71 109.4L200.34 113.1C202.67 114.42 204.43 115.61 206.13 115.57C207.83 115.53 209.69 114.66 211.97 113.36L218.61 109.68L231.87 102.33L258.41 87.6L285.07 73.13L298.4 65.89L305.07 62.28C307.23 61.01 309.27 59.59 311.38 58.28V60.16C303.52 54.85 295.02 50.33 286.85 45.4L262.1 30.93L212.36 2.36999Z" fill="white"/>
</g>
<g id="Vector_75" style="mix-blend-mode:color-burn">
<path d="M195.85 0C195.53 0.18 195.21 0.36 194.91 0.56L181.26 8.48L154 24.34L126.54 40L112.83 47.8C108.83 50.08 104.76 52.47 100.64 54.48L100.37 52.48C100.284 51.2849 100.284 50.0851 100.37 48.89L100.56 41.33L100.95 26.19L101.52 0H97.4V26.14L97.47 41.28V48.85C97.4286 50.1857 97.4854 51.5226 97.64 52.85L98.26 56.59L98.55 58.36L100.13 57.58C104.93 55.19 109.32 52.35 113.83 49.63L127.31 41.42L154.31 25.01L181.45 8.8L195 0.72C195.38 0.47 195.78 0.23 196.18 0H195.85Z" fill="white"/>
</g>
<g id="Vector_76" style="mix-blend-mode:color-burn">
<path d="M203.64 122.9C204.89 162.46 205.86 202.67 206.64 243.01V245.65L204.42 244.86L202.21 244.07L200.44 243.23C199.27 242.68 198.1 242.12 196.98 241.53L190.24 238C185.76 235.64 181.35 233.14 176.93 230.68L150.56 215.62L124.39 200.23C115.69 194.98 107.05 189.9 98.5 184.05L97.5 183.37V182.1L97.16 121.46C97.09 101.24 96.83 81.02 96.94 60.81V57.45L99.77 59.1699L152.09 91L203.64 122.9ZM203.64 122.9L150.38 92.69L97.87 62.41L100.71 60.77C101.19 80.99 101.29 101.2 101.6 121.42L102.36 182.06L101.36 180.12C109.46 185.74 118.21 191 126.79 196.26L152.79 211.81L179 227L192.18 234.43L198.79 238.07C199.89 238.69 201 239.24 202.1 239.8L203.73 240.61L205.07 241.18L202.9 243.03C202.91 203.31 203.14 163.43 203.64 122.9Z" fill="white"/>
</g>
<g id="Vector_77" style="mix-blend-mode:color-burn">
<path d="M94 0C94.25 17.94 94.41 35.89 94.8 53.83L45.16 25.21L0.73 0H0L43.46 26.89L95.77 58.72L98.58 60.43V57.09C98.69 38.09 98.48 19.03 98.39 0H94Z" fill="white"/>
</g>
<g id="Vector_78" style="mix-blend-mode:color-burn">
<path d="M525.73 679.47L475.08 651.19L449.66 637.19L436.93 630.19C432.71 627.82 428.39 625.75 424.35 622.81L423.02 621.81L424.35 620.91C426.47 619.48 428.52 617.91 430.7 616.59L437.24 612.79L450.33 605.17L476.52 590L502.83 575L516 567.54L522.58 563.79C524.58 562.68 527.21 560.79 530.72 560.79C532.357 560.809 533.968 561.203 535.43 561.94C536.83 562.66 537.72 563.21 538.87 563.86L545.44 567.63L558.57 575.17L584.83 590.25L611 605.46L624.07 613.13C628.533 615.581 632.85 618.289 637 621.24L638.64 622.48L636.9 623.43L581.56 653.55L554 668.82L540.23 676.46C537.91 677.68 535.7 679.11 533.23 680.16C532.019 680.67 530.702 680.873 529.394 680.753C528.086 680.632 526.827 680.192 525.73 679.47ZM525.73 679.47C526.837 680.182 528.102 680.611 529.414 680.717C530.725 680.824 532.043 680.605 533.25 680.08C535.63 679.01 537.84 677.55 540.14 676.3L553.82 668.5L581.19 652.91L608.42 637.08L635.6 621.18L635.51 623.37C631.328 620.59 626.987 618.055 622.51 615.78L609.22 608.52L582.74 593.9L556.29 579.13L543.07 571.74L536.45 568.04L533.28 566.27C532.491 565.845 531.616 565.605 530.72 565.57C529.06 565.57 527.19 566.57 524.89 567.9L518.27 571.57L505 578.91L478.51 593.59L451.9 608L438.59 615.22L431.93 618.84C429.73 620.06 427.75 621.52 425.64 622.84V621C429.34 623.9 433.7 626.17 437.83 628.65L450.35 636L475.41 650.61L525.73 679.47Z" fill="white"/>
</g>
<g id="Vector_79" style="mix-blend-mode:color-burn">
<path d="M732.73 800L690.51 774.66L665.29 759.28L652.69 751.56L646.39 747.7C644.22 746.46 642.44 745.19 642.07 743.16C641.891 740.798 641.851 738.427 641.95 736.06V728.68L642.05 713.91L642.25 684.37L642.19 654.84V640.07V632.69C642.19 631.45 642.19 630.1 642.19 628.82L642.52 628.98L645.83 630.65L652.49 634.16L665.74 641.42L692.07 656.37L718.29 671.53C723.12 674.37 727.96 677.24 732.75 680.15V676.55C728.55 673.84 724.33 671.19 720.1 668.55C711.53 663.18 702.93 657.86 694.21 652.74L668 637.46L654.74 630L648.04 626.37C646.93 625.76 645.77 625.19 644.58 624.63L642.81 623.79C642.02 623.49 641.21 623.21 640.4 622.96L638.14 622.28L637.67 625.02C637.16 628.02 637.54 630.15 637.47 632.7L637.58 640.09L637.78 654.86L638.19 684.41L638.87 713.95L639.21 728.72L639.38 736.11C639.54 738.66 639.26 740.81 639.79 743.74C640.32 746.67 643.28 748.5 645.31 749.56L651.72 753.23L664.54 760.57L690.16 775.29L732.73 800.16V800Z" fill="white"/>
</g>
<g id="Vector_80" style="mix-blend-mode:color-burn">
<path d="M732.73 673.74L690.99 649.74L666.5 635.43L643.56 621.88C645.063 620.678 646.662 619.601 648.34 618.66L655 615L668.33 607.75L695 593.29L721.54 578.58L732.75 572.35V567.09L732.53 567.21L719.35 574.74L693 589.81L666.8 605.09L653.7 612.73L647.15 616.55C644.976 617.939 642.886 619.455 640.89 621.09L639.49 622.09L640.99 622.91L690.66 650.3L732.73 673.85V673.74Z" fill="white"/>
</g>
</g>
</g>
</g>
</g>
</g>
<defs>
<clipPath id="clip0">
<rect width="732.73" height="800.16" fill="white"/>
</clipPath>
</defs>
</svg>
