<?xml version="1.0" encoding="UTF-8"?>
<svg width="137" height="36" xmlns="http://www.w3.org/2000/svg" viewBox="0 0 137 36"><defs><style>.cls-1{fill:#f22556;}.cls-2{isolation:isolate;}.cls-3{fill:#fff;}</style></defs><title>logo_stucy</title><g data-name="Слой 2"><g data-name="Слой 1"><g><path class="cls-1" d="M41.32,0H20.93A17.65,17.65,0,0,0,3.5,17.88,18.19,18.19,0,0,0,5.4,26H.54a.55.55,0,0,0-.54.55v8.68a.55.55,0,0,0,.54.55H20.93A17.69,17.69,0,0,0,38.36,17.91h0a18.29,18.29,0,0,0-1.91-8.13h4.86a.54.54,0,0,0,.54-.55V.55A.54.54,0,0,0,41.32,0ZM20.93,9.77h0a8,8,0,0,1,7.91,8.12h0A8,8,0,0,1,20.92,26,8,8,0,0,1,13,17.89a8,8,0,0,1,7.91-8.12Zm19.85-1.1H20.93a9.11,9.11,0,0,0-9,9.22,9.09,9.09,0,0,0,9,9.23,9.08,9.08,0,0,0,9-8.67h7.38A16.58,16.58,0,0,1,20.92,34.7h0l-.73,0H20l-.6-.05-.37,0-.34,0-.42-.08h0a16.27,16.27,0,0,1-7.91-3.79l-.24-.22-.23-.21-.46-.45-.06-.07q-.24-.24-.45-.48l-.08-.09c-.34-.39-.66-.79-1-1.19,0,0,0,0,0,0-.3-.42-.59-.86-.86-1.31,0,0,0,0,0,0A17.06,17.06,0,0,1,12.45,3.52,16.14,16.14,0,0,1,20.93,1.1H40.78Z"/><g class="cls-2"><g class="cls-2"><path class="cls-3" d="M56.39,33.11a5.33,5.33,0,0,1-2.18,2.1,7.36,7.36,0,0,1-3.57.79A8.69,8.69,0,0,1,47,35.25a6.47,6.47,0,0,1-2.61-2.1A6,6,0,0,1,43.23,30h3.49a3.69,3.69,0,0,0,1.13,2.32,3.62,3.62,0,0,0,2.64,1,3.13,3.13,0,0,0,2.31-.83,2.86,2.86,0,0,0,.81-2.11,2.79,2.79,0,0,0-.6-1.84,4.3,4.3,0,0,0-1.49-1.13c-.59-.27-1.4-.58-2.43-.94A20.69,20.69,0,0,1,46,25.25a5.57,5.57,0,0,1-2-1.79,5.28,5.28,0,0,1-.83-3.09,5.38,5.38,0,0,1,.8-2.93,5.2,5.2,0,0,1,2.29-2,8,8,0,0,1,3.43-.69,7.38,7.38,0,0,1,4.91,1.53,5.8,5.8,0,0,1,2.07,4H53.15a3.55,3.55,0,0,0-1.07-2,3.3,3.3,0,0,0-2.39-.83,3.24,3.24,0,0,0-2.2.72,2.6,2.6,0,0,0-.83,2.07A2.64,2.64,0,0,0,47.23,22a3.89,3.89,0,0,0,1.45,1.09c.58.26,1.37.57,2.38.93a20.72,20.72,0,0,1,3.14,1.24,5.91,5.91,0,0,1,2.06,1.84,5.43,5.43,0,0,1,.84,3.17A5.89,5.89,0,0,1,56.39,33.11Z"/><path class="cls-3" d="M73.35,15.06v2.7H67.71v18H64.42v-18h-5.6v-2.7Z"/><path class="cls-3" d="M78.9,15.06v12.3a6.05,6.05,0,0,0,1.19,4.12,4.75,4.75,0,0,0,6.63,0,6.1,6.1,0,0,0,1.19-4.12V15.06h3.26v12.3q0,4.26-2.14,6.45A7.58,7.58,0,0,1,83.36,36a7.46,7.46,0,0,1-5.61-2.19q-2.11-2.19-2.11-6.45V15.06Z"/><path class="cls-3" d="M110.17,16.79a9.55,9.55,0,0,1,3.32,5.26H110a6.18,6.18,0,0,0-2.27-3A6.41,6.41,0,0,0,103.93,18a5.83,5.83,0,0,0-3.22.92,6.18,6.18,0,0,0-2.23,2.59,9.09,9.09,0,0,0-.81,4,9,9,0,0,0,.81,3.92,6.27,6.27,0,0,0,2.23,2.6,5.9,5.9,0,0,0,3.22.91,6.48,6.48,0,0,0,3.82-1.1,6.27,6.27,0,0,0,2.27-3h3.47a9.49,9.49,0,0,1-3.32,5.25A9.74,9.74,0,0,1,104,36a9.51,9.51,0,0,1-5.07-1.34,9,9,0,0,1-3.4-3.73,12,12,0,0,1-1.2-5.47A12,12,0,0,1,95.52,20a9.08,9.08,0,0,1,3.4-3.75A9.51,9.51,0,0,1,104,14.85,9.69,9.69,0,0,1,110.17,16.79Z"/><path class="cls-3" d="M132,15.06l-6.72,13.19v7.54H122V28.25l-6.75-13.19H119l4.63,9.6,4.64-9.6Z"/></g><g class="cls-2"><path class="cls-1" d="M137,32.09v3.7h-3.69v-3.7Z"/></g></g></g></g></g></svg>